999
dxfrw 0.5.11
0
SECTION
2
HEADER
9
$ACADVER
1
AC1021
9
$HANDSEED
5
20000
9
$DWGCODEPAGE
3
ANSI_1252
9
$INSBASE
10
0
20
0
30
0
9
$EXTMIN
10
-93.125
20
-21.25
30
0
9
$EXTMAX
10
111.25
20
93.125
30
0
9
$LIMMIN
10
0
20
0
9
$LIMMAX
10
420
20
297
9
$ORTHOMODE
70
0
9
$LTSCALE
40
1
9
$TEXTSTYLE
7
STANDARD
9
$CLAYER
8
0
9
$DIMASZ
40
2.5
9
$DIMLFAC
40
1
9
$DIMSCALE
40
1
9
$DIMEXO
40
0.625
9
$DIMEXE
40
1.25
9
$DIMTXT
40
2.5
9
$DIMTSZ
40
0
9
$DIMAUNIT
70
0
9
$DIMADEC
70
0
9
$DIMLUNIT
70
2
9
$DIMSTYLE
2
STANDARD
9
$DIMGAP
40
0.625
9
$DIMTIH
70
0
9
$LUNITS
70
2
9
$LUPREC
70
4
9
$AUNITS
70
0
9
$AUPREC
70
2
9
$SPLINESEGS
70
8
9
$GRIDMODE
70
1
9
$SNAPSTYLE
70
0
9
$PINSBASE
10
0
20
0
30
0
9
$PLIMMIN
10
0
20
0
9
$PLIMMAX
10
210
20
297
9
$INSUNITS
70
4
9
$PSVPSCALE
40
1
0
ENDSEC
0
SECTION
2
CLASSES
0
ENDSEC
0
SECTION
2
TABLES
0
TABLE
2
VPORT
5
8
330
0
100
AcDbSymbolTable
70
1
0
VPORT
5
31
330
2
100
AcDbSymbolTableRecord
100
AcDbViewportTableRecord
2
*ACTIVE
70
0
10
0
20
0
11
1
21
1
12
36.24
22
53.36
13
0
23
0
14
10
24
10
15
10
25
10
16
0
26
0
36
1
17
0
27
0
37
0
40
128.96
41
1.47022332506
42
50
43
0
44
0
50
0
51
0
71
0
72
100
73
1
74
3
75
0
76
1
77
0
78
0
281
0
65
1
110
0
120
0
130
0
111
1
121
0
131
0
112
0
122
1
132
0
79
0
146
0
348
10020
60
7
61
5
292
1
282
1
141
0
142
0
63
250
421
3358443
0
ENDTAB
0
TABLE
2
LTYPE
5
5
330
0
100
AcDbSymbolTable
70
4
0
LTYPE
5
14
330
5
100
AcDbSymbolTableRecord
100
AcDbLinetypeTableRecord
2
ByBlock
70
0
3

72
65
73
0
40
0
0
LTYPE
5
15
330
5
100
AcDbSymbolTableRecord
100
AcDbLinetypeTableRecord
2
ByLayer
70
0
3

72
65
73
0
40
0
0
LTYPE
5
16
330
5
100
AcDbSymbolTableRecord
100
AcDbLinetypeTableRecord
2
Continuous
70
0
3
Solid line
72
65
73
0
40
0
0
LTYPE
5
32
330
5
100
AcDbSymbolTableRecord
100
AcDbLinetypeTableRecord
2
DOT
70
0
3
Dot . . . . . . . . . . . . . . . . . . . . . .
72
65
73
2
40
6.35
49
0
74
0
49
-6.35
74
0
0
LTYPE
5
33
330
5
100
AcDbSymbolTableRecord
100
AcDbLinetypeTableRecord
2
DOT2
70
0
3
Dot (.5x) .....................................
72
65
73
2
40
3.175
49
0
74
0
49
-3.175
74
0
0
LTYPE
5
34
330
5
100
AcDbSymbolTableRecord
100
AcDbLinetypeTableRecord
2
DOTX2
70
0
3
Dot (2x) .  .  .  .  .  .  .  .  .  .  .  .  .
72
65
73
2
40
12.7
49
0
74
0
49
-12.7
74
0
0
LTYPE
5
35
330
5
100
AcDbSymbolTableRecord
100
AcDbLinetypeTableRecord
2
DASHED
70
0
3
Dot . . . . . . . . . . . . . . . . . . . . . .
72
65
73
2
40
19.05
49
12.7
74
0
49
-6.35
74
0
0
LTYPE
5
36
330
5
100
AcDbSymbolTableRecord
100
AcDbLinetypeTableRecord
2
DASHED2
70
0
3
Dashed (.5x) _ _ _ _ _ _ _ _ _ _ _ _ _ _ _ _ _
72
65
73
2
40
9.525
49
6.35
74
0
49
-3.175
74
0
0
LTYPE
5
37
330
5
100
AcDbSymbolTableRecord
100
AcDbLinetypeTableRecord
2
DASHEDX2
70
0
3
Dashed (2x) ____  ____  ____  ____  ____  ___
72
65
73
2
40
38.1
49
25.4
74
0
49
-12.7
74
0
0
LTYPE
5
38
330
5
100
AcDbSymbolTableRecord
100
AcDbLinetypeTableRecord
2
DASHDOT
70
0
3
Dash dot __ . __ . __ . __ . __ . __ . __ . __
72
65
73
4
40
25.4
49
12.7
74
0
49
-6.35
74
0
49
0
74
0
49
-6.35
74
0
0
LTYPE
5
39
330
5
100
AcDbSymbolTableRecord
100
AcDbLinetypeTableRecord
2
DASHDOT2
70
0
3
Dash dot (.5x) _._._._._._._._._._._._._._._.
72
65
73
4
40
12.7
49
6.35
74
0
49
-3.175
74
0
49
0
74
0
49
-3.175
74
0
0
LTYPE
5
3A
330
5
100
AcDbSymbolTableRecord
100
AcDbLinetypeTableRecord
2
DASHDOTX2
70
0
3
Dash dot (2x) ____  .  ____  .  ____  .  ___
72
65
73
4
40
50.8
49
25.4
74
0
49
-12.7
74
0
49
0
74
0
49
-12.7
74
0
0
LTYPE
5
3B
330
5
100
AcDbSymbolTableRecord
100
AcDbLinetypeTableRecord
2
DIVIDE
70
0
3
Divide ____ . . ____ . . ____ . . ____ . . ____
72
65
73
6
40
31.75
49
12.7
74
0
49
-6.35
74
0
49
0
74
0
49
-6.35
74
0
49
0
74
0
49
-6.35
74
0
0
LTYPE
5
3C
330
5
100
AcDbSymbolTableRecord
100
AcDbLinetypeTableRecord
2
DIVIDE2
70
0
3
Divide (.5x) __..__..__..__..__..__..__..__.._
72
65
73
6
40
15.875
49
6.35
74
0
49
-3.175
74
0
49
0
74
0
49
-3.175
74
0
49
0
74
0
49
-3.175
74
0
0
LTYPE
5
3D
330
5
100
AcDbSymbolTableRecord
100
AcDbLinetypeTableRecord
2
DIVIDEX2
70
0
3
Divide (2x) ________  .  .  ________  .  .  _
72
65
73
6
40
63.5
49
25.4
74
0
49
-12.7
74
0
49
0
74
0
49
-12.7
74
0
49
0
74
0
49
-12.7
74
0
0
LTYPE
5
3E
330
5
100
AcDbSymbolTableRecord
100
AcDbLinetypeTableRecord
2
BORDER
70
0
3
Border __ __ . __ __ . __ __ . __ __ . __ __ .
72
65
73
6
40
44.45
49
12.7
74
0
49
-6.35
74
0
49
12.7
74
0
49
-6.35
74
0
49
0
74
0
49
-6.35
74
0
0
LTYPE
5
3F
330
5
100
AcDbSymbolTableRecord
100
AcDbLinetypeTableRecord
2
BORDER2
70
0
3
Border (.5x) __.__.__.__.__.__.__.__.__.__.__.
72
65
73
6
40
22.225
49
6.35
74
0
49
-3.175
74
0
49
6.35
74
0
49
-3.175
74
0
49
0
74
0
49
-3.175
74
0
0
LTYPE
5
40
330
5
100
AcDbSymbolTableRecord
100
AcDbLinetypeTableRecord
2
BORDERX2
70
0
3
Border (2x) ____  ____  .  ____  ____  .  ___
72
65
73
6
40
88.9
49
25.4
74
0
49
-12.7
74
0
49
25.4
74
0
49
-12.7
74
0
49
0
74
0
49
-12.7
74
0
0
LTYPE
5
41
330
5
100
AcDbSymbolTableRecord
100
AcDbLinetypeTableRecord
2
CENTER
70
0
3
Center ____ _ ____ _ ____ _ ____ _ ____ _ ____
72
65
73
4
40
50.8
49
31.75
74
0
49
-6.35
74
0
49
6.35
74
0
49
-6.35
74
0
0
LTYPE
5
42
330
5
100
AcDbSymbolTableRecord
100
AcDbLinetypeTableRecord
2
CENTER2
70
0
3
Center (.5x) ___ _ ___ _ ___ _ ___ _ ___ _ ___
72
65
73
4
40
28.575
49
19.05
74
0
49
-3.175
74
0
49
3.175
74
0
49
-3.175
74
0
0
LTYPE
5
43
330
5
100
AcDbSymbolTableRecord
100
AcDbLinetypeTableRecord
2
CENTERX2
70
0
3
Center (2x) ________  __  ________  __  _____
72
65
73
4
40
101.6
49
63.5
74
0
49
-12.7
74
0
49
12.7
74
0
49
-12.7
74
0
0
ENDTAB
0
TABLE
2
LAYER
5
2
330
0
100
AcDbSymbolTable
70
1
0
LAYER
5
10
330
2
100
AcDbSymbolTableRecord
100
AcDbLayerTableRecord
2
0
70
0
62
7
6
CONTINUOUS
370
0
390
F
0
ENDTAB
0
TABLE
2
STYLE
5
3
330
0
100
AcDbSymbolTable
70
3
0
STYLE
5
44
330
2
100
AcDbSymbolTableRecord
100
AcDbTextStyleTableRecord
2
Standard
70
0
40
0
41
1
50
0
71
0
42
1
3
txt
4

0
ENDTAB
0
TABLE
2
VIEW
5
6
330
0
100
AcDbSymbolTable
70
0
0
ENDTAB
0
TABLE
2
UCS
5
7
330
0
100
AcDbSymbolTable
70
0
0
ENDTAB
0
TABLE
2
APPID
5
9
330
0
100
AcDbSymbolTable
70
1
0
APPID
5
12
330
9
100
AcDbSymbolTableRecord
100
AcDbRegAppTableRecord
2
ACAD
70
0
0
ENDTAB
0
TABLE
2
DIMSTYLE
5
A
330
0
100
AcDbSymbolTable
70
1
100
AcDbDimStyleTable
71
1
0
DIMSTYLE
105
45
330
A
100
AcDbSymbolTableRecord
100
AcDbDimStyleTableRecord
2
Standard
70
0
40
1
41
2.5
42
0.625
43
0.38
44
1.25
45
0
46
0
47
0
48
0
140
2.5
141
0.09
142
0
143
25.4
144
1
145
0
146
1
147
0.625
148
0
71
0
72
0
73
0
74
1
75
0
76
0
77
0
78
0
79
0
170
0
171
2
172
0
173
0
174
0
175
0
176
0
177
0
178
0
179
0
271
4
272
4
273
2
274
2
275
0
276
0
277
2
278
46
279
0
280
0
281
0
282
0
283
1
284
0
285
0
286
0
288
0
289
3
340
Standard
341

371
-2
372
-2
0
ENDTAB
0
TABLE
2
BLOCK_RECORD
5
1
330
0
100
AcDbSymbolTable
70
2
0
BLOCK_RECORD
5
1F
330
1
100
AcDbSymbolTableRecord
100
AcDbBlockTableRecord
2
*Model_Space
70
0
280
1
281
0
0
BLOCK_RECORD
5
1E
330
1
100
AcDbSymbolTableRecord
100
AcDbBlockTableRecord
2
*Paper_Space
70
0
280
1
281
0
0
BLOCK_RECORD
5
46
330
1
100
AcDbSymbolTableRecord
100
AcDbBlockTableRecord
2
*D8
70
0
280
1
281
0
0
BLOCK_RECORD
5
49
330
1
100
AcDbSymbolTableRecord
100
AcDbBlockTableRecord
2
*D4
70
0
280
1
281
0
0
BLOCK_RECORD
5
4C
330
1
100
AcDbSymbolTableRecord
100
AcDbBlockTableRecord
2
*D18
70
0
280
1
281
0
0
BLOCK_RECORD
5
4F
330
1
100
AcDbSymbolTableRecord
100
AcDbBlockTableRecord
2
*D15
70
0
280
1
281
0
0
BLOCK_RECORD
5
52
330
1
100
AcDbSymbolTableRecord
100
AcDbBlockTableRecord
2
*D1
70
0
280
1
281
0
0
BLOCK_RECORD
5
55
330
1
100
AcDbSymbolTableRecord
100
AcDbBlockTableRecord
2
*D9
70
0
280
1
281
0
0
BLOCK_RECORD
5
58
330
1
100
AcDbSymbolTableRecord
100
AcDbBlockTableRecord
2
*D16
70
0
280
1
281
0
0
BLOCK_RECORD
5
5B
330
1
100
AcDbSymbolTableRecord
100
AcDbBlockTableRecord
2
*D6
70
0
280
1
281
0
0
BLOCK_RECORD
5
5E
330
1
100
AcDbSymbolTableRecord
100
AcDbBlockTableRecord
2
*D17
70
0
280
1
281
0
0
BLOCK_RECORD
5
61
330
1
100
AcDbSymbolTableRecord
100
AcDbBlockTableRecord
2
*D14
70
0
280
1
281
0
0
BLOCK_RECORD
5
64
330
1
100
AcDbSymbolTableRecord
100
AcDbBlockTableRecord
2
*D3
70
0
280
1
281
0
0
BLOCK_RECORD
5
67
330
1
100
AcDbSymbolTableRecord
100
AcDbBlockTableRecord
2
*D2
70
0
280
1
281
0
0
BLOCK_RECORD
5
6A
330
1
100
AcDbSymbolTableRecord
100
AcDbBlockTableRecord
2
*D7
70
0
280
1
281
0
0
BLOCK_RECORD
5
6D
330
1
100
AcDbSymbolTableRecord
100
AcDbBlockTableRecord
2
*D5
70
0
280
1
281
0
0
BLOCK_RECORD
5
70
330
1
100
AcDbSymbolTableRecord
100
AcDbBlockTableRecord
2
*D11
70
0
280
1
281
0
0
BLOCK_RECORD
5
73
330
1
100
AcDbSymbolTableRecord
100
AcDbBlockTableRecord
2
*D13
70
0
280
1
281
0
0
BLOCK_RECORD
5
76
330
1
100
AcDbSymbolTableRecord
100
AcDbBlockTableRecord
2
*D10
70
0
280
1
281
0
0
BLOCK_RECORD
5
79
330
1
100
AcDbSymbolTableRecord
100
AcDbBlockTableRecord
2
*D12
70
0
280
1
281
0
0
BLOCK_RECORD
5
7C
330
1
100
AcDbSymbolTableRecord
100
AcDbBlockTableRecord
2
avr-sensors-Edge_Cuts-0
70
0
280
1
281
0
0
BLOCK_RECORD
5
7F
330
1
100
AcDbSymbolTableRecord
100
AcDbBlockTableRecord
2
avr-sensors-Edge_Cuts-0-0
70
0
280
1
281
0
0
BLOCK_RECORD
5
82
330
1
100
AcDbSymbolTableRecord
100
AcDbBlockTableRecord
2
avr-sensors-Edge_Cuts-0-0-0
70
0
280
1
281
0
0
BLOCK_RECORD
5
85
330
1
100
AcDbSymbolTableRecord
100
AcDbBlockTableRecord
2
avr-sensors-Edge_Cuts-0-1
70
0
280
1
281
0
0
BLOCK_RECORD
5
88
330
1
100
AcDbSymbolTableRecord
100
AcDbBlockTableRecord
2
avr-sensors-Edge_Cuts-0-0-1
70
0
280
1
281
0
0
BLOCK_RECORD
5
8B
330
1
100
AcDbSymbolTableRecord
100
AcDbBlockTableRecord
2
avr-sensors-Edge_Cuts-0-0-1-0
70
0
280
1
281
0
0
BLOCK_RECORD
5
8E
330
1
100
AcDbSymbolTableRecord
100
AcDbBlockTableRecord
2
avr-sensors-Edge_Cuts-0-0-1-0-0
70
0
280
1
281
0
0
BLOCK_RECORD
5
91
330
1
100
AcDbSymbolTableRecord
100
AcDbBlockTableRecord
2
noname0
70
0
280
1
281
0
0
BLOCK_RECORD
5
94
330
1
100
AcDbSymbolTableRecord
100
AcDbBlockTableRecord
2
avr-sensors-Edge_Cuts-0-0-1-0-0-0
70
0
280
1
281
0
0
BLOCK_RECORD
5
97
330
1
100
AcDbSymbolTableRecord
100
AcDbBlockTableRecord
2
noname1
70
0
280
1
281
0
0
BLOCK_RECORD
5
9A
330
1
100
AcDbSymbolTableRecord
100
AcDbBlockTableRecord
2
avr-sensors-Edge_Cuts-0-0-1-0-0-0-0
70
0
280
1
281
0
0
BLOCK_RECORD
5
9D
330
1
100
AcDbSymbolTableRecord
100
AcDbBlockTableRecord
2
noname2
70
0
280
1
281
0
0
BLOCK_RECORD
5
A0
330
1
100
AcDbSymbolTableRecord
100
AcDbBlockTableRecord
2
avr-sensors-Edge_Cuts-0-0-1-0-1
70
0
280
1
281
0
0
BLOCK_RECORD
5
A3
330
1
100
AcDbSymbolTableRecord
100
AcDbBlockTableRecord
2
avr-sensors-Edge_Cuts-0-0-1-0-1-0
70
0
280
1
281
0
0
BLOCK_RECORD
5
A6
330
1
100
AcDbSymbolTableRecord
100
AcDbBlockTableRecord
2
noname3
70
0
280
1
281
0
0
BLOCK_RECORD
5
A9
330
1
100
AcDbSymbolTableRecord
100
AcDbBlockTableRecord
2
avr-sensors-Edge_Cuts-0-0-1-1
70
0
280
1
281
0
0
ENDTAB
0
ENDSEC
0
SECTION
2
BLOCKS
0
BLOCK
5
20
330
1F
100
AcDbEntity
8
0
100
AcDbBlockBegin
2
*Model_Space
70
0
10
0
20
0
30
0
3
*Model_Space
1

0
ENDBLK
5
21
330
1F
100
AcDbEntity
8
0
100
AcDbBlockEnd
0
BLOCK
5
1C
330
1B
100
AcDbEntity
8
0
100
AcDbBlockBegin
2
*Paper_Space
70
0
10
0
20
0
30
0
3
*Paper_Space
1

0
ENDBLK
5
1D
330
1F
100
AcDbEntity
8
0
100
AcDbBlockEnd
0
BLOCK
5
47
330
46
100
AcDbEntity
8
0
100
AcDbBlockBegin
2
*D8
70
1
10
0
20
0
3
*D8
1

0
LINE
5
AC
100
AcDbEntity
8
0
6
CONTINUOUS
62
7
370
0
100
AcDbLine
10
66.625
20
4
11
101.25
21
4
0
LINE
5
AD
100
AcDbEntity
8
0
6
CONTINUOUS
62
7
370
0
100
AcDbLine
10
66.625
20
46
11
101.25
21
46
0
LINE
5
AE
100
AcDbEntity
8
0
6
CONTINUOUS
62
7
370
0
100
AcDbLine
10
100
20
4
11
100
21
46
0
SOLID
5
AF
100
AcDbEntity
8
0
6
CONTINUOUS
62
7
370
0
100
AcDbTrace
10
100
20
4
30
0
11
99.5837153422
21
6.5
31
0
12
100.416284658
22
6.5
32
0
13
100.416284658
23
6.5
33
0
0
SOLID
5
B0
100
AcDbEntity
8
0
6
CONTINUOUS
62
7
370
0
100
AcDbTrace
10
100
20
46
30
0
11
100.416284658
21
43.5
31
0
12
99.5837153422
22
43.5
32
0
13
99.5837153422
23
43.5
33
0
0
MTEXT
5
B1
100
AcDbEntity
8
0
6
CONTINUOUS
62
7
370
0
100
AcDbMText
10
98.125
20
25
30
0
40
2.5
41
3.33333333333
71
5
72
1
1
42
7
standard
210
0
220
0
230
1
50
90
73
2
44
1
0
ENDBLK
5
48
330
46
100
AcDbEntity
8
0
100
AcDbBlockEnd
0
BLOCK
5
4A
330
49
100
AcDbEntity
8
0
100
AcDbBlockBegin
2
*D4
70
1
10
0
20
0
3
*D4
1

0
LINE
5
B2
100
AcDbEntity
8
0
6
CONTINUOUS
62
7
370
0
100
AcDbLine
10
67.625
20
49
11
111.25
21
49
0
LINE
5
B3
100
AcDbEntity
8
0
6
CONTINUOUS
62
7
370
0
100
AcDbLine
10
67.625
20
-1.53080849893e-16
11
111.25
21
-1.08381241725e-14
0
LINE
5
B4
100
AcDbEntity
8
0
6
CONTINUOUS
62
7
370
0
100
AcDbLine
10
110
20
49
11
110
21
-1.05319624727e-14
0
SOLID
5
B5
100
AcDbEntity
8
0
6
CONTINUOUS
62
7
370
0
100
AcDbTrace
10
110
20
49
30
0
11
110.416284658
21
46.5
31
0
12
109.583715342
22
46.5
32
0
13
109.583715342
23
46.5
33
0
0
SOLID
5
B6
100
AcDbEntity
8
0
6
CONTINUOUS
62
7
370
0
100
AcDbTrace
10
110
20
-1.05319624727e-14
30
0
11
109.583715342
21
2.5
31
0
12
110.416284658
22
2.5
32
0
13
110.416284658
23
2.5
33
0
0
MTEXT
5
B7
100
AcDbEntity
8
0
6
CONTINUOUS
62
7
370
0
100
AcDbMText
10
108.125
20
24.5
30
0
40
2.5
41
3.33333333333
71
5
72
1
1
49
7
standard
210
0
220
0
230
1
50
90
73
2
44
1
0
ENDBLK
5
4B
330
49
100
AcDbEntity
8
0
100
AcDbBlockEnd
0
BLOCK
5
4D
330
4C
100
AcDbEntity
8
0
100
AcDbBlockBegin
2
*D18
70
1
10
0
20
0
3
*D18
1

0
LINE
5
B8
100
AcDbEntity
8
0
6
CONTINUOUS
62
7
370
0
100
AcDbLine
10
-31.625
20
29
11
-71.25
21
29
0
LINE
5
B9
100
AcDbEntity
8
0
6
CONTINUOUS
62
7
370
0
100
AcDbLine
10
-31.625
20
49
11
-71.25
21
49
0
LINE
5
BA
100
AcDbEntity
8
0
6
CONTINUOUS
62
7
370
0
100
AcDbLine
10
-70
20
29
11
-70
21
49
0
SOLID
5
BB
100
AcDbEntity
8
0
6
CONTINUOUS
62
7
370
0
100
AcDbTrace
10
-70
20
29
30
0
11
-70.4162846578
21
31.5
31
0
12
-69.5837153422
22
31.5
32
0
13
-69.5837153422
23
31.5
33
0
0
SOLID
5
BC
100
AcDbEntity
8
0
6
CONTINUOUS
62
7
370
0
100
AcDbTrace
10
-70
20
49
30
0
11
-69.5837153422
21
46.5
31
0
12
-70.4162846578
22
46.5
32
0
13
-70.4162846578
23
46.5
33
0
0
MTEXT
5
BD
100
AcDbEntity
8
0
6
CONTINUOUS
62
7
370
0
100
AcDbMText
10
-71.875
20
39
30
0
40
2.5
41
3.05555555556
71
5
72
1
1
20
7
standard
210
0
220
0
230
1
50
90
73
2
44
1
0
ENDBLK
5
4E
330
4C
100
AcDbEntity
8
0
100
AcDbBlockEnd
0
BLOCK
5
50
330
4F
100
AcDbEntity
8
0
100
AcDbBlockBegin
2
*D15
70
1
10
0
20
0
3
*D15
1

0
LINE
5
BE
100
AcDbEntity
8
0
6
CONTINUOUS
62
7
370
0
100
AcDbLine
10
-34.625
20
29
11
-61.25
21
29
0
LINE
5
BF
100
AcDbEntity
8
0
6
CONTINUOUS
62
7
370
0
100
AcDbLine
10
-34.625
20
14
11
-61.25
21
14
0
LINE
5
C0
100
AcDbEntity
8
0
6
CONTINUOUS
62
7
370
0
100
AcDbLine
10
-60
20
29
11
-60
21
14
0
SOLID
5
C1
100
AcDbEntity
8
0
6
CONTINUOUS
62
7
370
0
100
AcDbTrace
10
-60
20
29
30
0
11
-59.5837153422
21
26.5
31
0
12
-60.4162846578
22
26.5
32
0
13
-60.4162846578
23
26.5
33
0
0
SOLID
5
C2
100
AcDbEntity
8
0
6
CONTINUOUS
62
7
370
0
100
AcDbTrace
10
-60
20
14
30
0
11
-60.4162846578
21
16.5
31
0
12
-59.5837153422
22
16.5
32
0
13
-59.5837153422
23
16.5
33
0
0
MTEXT
5
C3
100
AcDbEntity
8
0
6
CONTINUOUS
62
7
370
0
100
AcDbMText
10
-61.875
20
21.5
30
0
40
2.5
41
2.5
71
5
72
1
1
15
7
standard
210
0
220
0
230
1
50
90
73
2
44
1
0
ENDBLK
5
51
330
4F
100
AcDbEntity
8
0
100
AcDbBlockEnd
0
BLOCK
5
53
330
52
100
AcDbEntity
8
0
100
AcDbBlockBegin
2
*D1
70
1
10
0
20
0
3
*D1
1

0
LINE
5
C4
100
AcDbEntity
8
0
6
CONTINUOUS
62
7
370
0
100
AcDbLine
10
26
20
46.625
11
26
21
71.25
0
LINE
5
C5
100
AcDbEntity
8
0
6
CONTINUOUS
62
7
370
0
100
AcDbLine
10
65
20
46.625
11
65
21
71.25
0
LINE
5
C6
100
AcDbEntity
8
0
6
CONTINUOUS
62
7
370
0
100
AcDbLine
10
26
20
70
11
65
21
70
0
SOLID
5
C7
100
AcDbEntity
8
0
6
CONTINUOUS
62
7
370
0
100
AcDbTrace
10
26
20
70
30
0
11
28.5
21
70.4162846578
31
0
12
28.5
22
69.5837153422
32
0
13
28.5
23
69.5837153422
33
0
0
SOLID
5
C8
100
AcDbEntity
8
0
6
CONTINUOUS
62
7
370
0
100
AcDbTrace
10
65
20
70
30
0
11
62.5
21
69.5837153422
31
0
12
62.5
22
70.4162846578
32
0
13
62.5
23
70.4162846578
33
0
0
MTEXT
5
C9
100
AcDbEntity
8
0
6
CONTINUOUS
62
7
370
0
100
AcDbMText
10
45.5
20
71.875
30
0
40
2.5
41
3.05555555556
71
5
72
1
1
39
7
standard
210
0
220
0
230
1
50
0
73
2
44
1
0
ENDBLK
5
54
330
52
100
AcDbEntity
8
0
100
AcDbBlockEnd
0
BLOCK
5
56
330
55
100
AcDbEntity
8
0
100
AcDbBlockBegin
2
*D9
70
1
10
0
20
0
3
*D9
1

0
LINE
5
CA
100
AcDbEntity
8
0
6
CONTINUOUS
62
7
370
0
100
AcDbLine
10
25
20
3.375
11
25
21
-21.25
0
LINE
5
CB
100
AcDbEntity
8
0
6
CONTINUOUS
62
7
370
0
100
AcDbLine
10
66
20
3.375
11
66
21
-21.25
0
LINE
5
CC
100
AcDbEntity
8
0
6
CONTINUOUS
62
7
370
0
100
AcDbLine
10
25
20
-20
11
66
21
-20
0
SOLID
5
CD
100
AcDbEntity
8
0
6
CONTINUOUS
62
7
370
0
100
AcDbTrace
10
25
20
-20
30
0
11
27.5
21
-19.5837153422
31
0
12
27.5
22
-20.4162846578
32
0
13
27.5
23
-20.4162846578
33
0
0
SOLID
5
CE
100
AcDbEntity
8
0
6
CONTINUOUS
62
7
370
0
100
AcDbTrace
10
66
20
-20
30
0
11
63.5
21
-20.4162846578
31
0
12
63.5
22
-19.5837153422
32
0
13
63.5
23
-19.5837153422
33
0
0
MTEXT
5
CF
100
AcDbEntity
8
0
6
CONTINUOUS
62
7
370
0
100
AcDbMText
10
45.5
20
-18.125
30
0
40
2.5
41
2.77777777778
71
5
72
1
1
41
7
standard
210
0
220
0
230
1
50
0
73
2
44
1
0
ENDBLK
5
57
330
55
100
AcDbEntity
8
0
100
AcDbBlockEnd
0
BLOCK
5
59
330
58
100
AcDbEntity
8
0
100
AcDbBlockBegin
2
*D16
70
1
10
0
20
0
3
*D16
1

0
LINE
5
D0
100
AcDbEntity
8
0
6
CONTINUOUS
62
7
370
0
100
AcDbLine
10
-38.125
20
28
11
-44.25
21
28
0
LINE
5
D1
100
AcDbEntity
8
0
6
CONTINUOUS
62
7
370
0
100
AcDbLine
10
-38.125
20
29
11
-44.25
21
29
0
LINE
5
D2
100
AcDbEntity
8
0
6
CONTINUOUS
62
7
370
0
100
AcDbLine
10
-43
20
23
11
-43
21
34
0
SOLID
5
D3
100
AcDbEntity
8
0
6
CONTINUOUS
62
7
370
0
100
AcDbTrace
10
-43
20
28
30
0
11
-42.5837153422
21
25.5
31
0
12
-43.4162846578
22
25.5
32
0
13
-43.4162846578
23
25.5
33
0
0
SOLID
5
D4
100
AcDbEntity
8
0
6
CONTINUOUS
62
7
370
0
100
AcDbTrace
10
-43
20
29
30
0
11
-43.4162846578
21
31.5
31
0
12
-42.5837153422
22
31.5
32
0
13
-42.5837153422
23
31.5
33
0
0
MTEXT
5
D5
100
AcDbEntity
8
0
6
CONTINUOUS
62
7
370
0
100
AcDbMText
10
-44.875
20
28.5
30
0
40
2.5
41
0.555555555556
71
5
72
1
1
1
7
standard
210
0
220
0
230
1
50
90
73
2
44
1
0
ENDBLK
5
5A
330
58
100
AcDbEntity
8
0
100
AcDbBlockEnd
0
BLOCK
5
5C
330
5B
100
AcDbEntity
8
0
100
AcDbBlockBegin
2
*D6
70
1
10
0
20
0
3
*D6
1

0
LINE
5
D6
100
AcDbEntity
8
0
6
CONTINUOUS
62
7
370
0
100
AcDbLine
10
65
20
46.625
11
65
21
61.25
0
LINE
5
D7
100
AcDbEntity
8
0
6
CONTINUOUS
62
7
370
0
100
AcDbLine
10
70
20
46.625
11
70
21
61.25
0
LINE
5
D8
100
AcDbEntity
8
0
6
CONTINUOUS
62
7
370
0
100
AcDbLine
10
60
20
60
11
75
21
60
0
SOLID
5
D9
100
AcDbEntity
8
0
6
CONTINUOUS
62
7
370
0
100
AcDbTrace
10
65
20
60
30
0
11
62.5
21
59.5837153422
31
0
12
62.5
22
60.4162846578
32
0
13
62.5
23
60.4162846578
33
0
0
SOLID
5
DA
100
AcDbEntity
8
0
6
CONTINUOUS
62
7
370
0
100
AcDbTrace
10
70
20
60
30
0
11
72.5
21
60.4162846578
31
0
12
72.5
22
59.5837153422
32
0
13
72.5
23
59.5837153422
33
0
0
MTEXT
5
DB
100
AcDbEntity
8
0
6
CONTINUOUS
62
7
370
0
100
AcDbMText
10
67.5
20
61.875
30
0
40
2.5
41
1.11111111111
71
5
72
1
1
5
7
standard
210
0
220
0
230
1
50
0
73
2
44
1
0
ENDBLK
5
5D
330
5B
100
AcDbEntity
8
0
100
AcDbBlockEnd
0
BLOCK
5
5F
330
5E
100
AcDbEntity
8
0
100
AcDbBlockBegin
2
*D17
70
1
10
0
20
0
3
*D17
1

0
LINE
5
DC
100
AcDbEntity
8
0
6
CONTINUOUS
62
7
370
0
100
AcDbLine
10
-46.625
20
49
11
-91.25
21
49
0
LINE
5
DD
100
AcDbEntity
8
0
6
CONTINUOUS
62
7
370
0
100
AcDbLine
10
-46.625
20
7.65404249467e-17
11
-91.25
21
5.54152676614e-15
0
LINE
5
DE
100
AcDbEntity
8
0
6
CONTINUOUS
62
7
370
0
100
AcDbLine
10
-90
20
49
11
-90
21
5.38844591625e-15
0
SOLID
5
DF
100
AcDbEntity
8
0
6
CONTINUOUS
62
7
370
0
100
AcDbTrace
10
-90
20
49
30
0
11
-89.5837153422
21
46.5
31
0
12
-90.4162846578
22
46.5
32
0
13
-90.4162846578
23
46.5
33
0
0
SOLID
5
E0
100
AcDbEntity
8
0
6
CONTINUOUS
62
7
370
0
100
AcDbTrace
10
-90
20
5.38844591625e-15
30
0
11
-90.4162846578
21
2.5
31
0
12
-89.5837153422
22
2.5
32
0
13
-89.5837153422
23
2.5
33
0
0
MTEXT
5
E1
100
AcDbEntity
8
0
6
CONTINUOUS
62
7
370
0
100
AcDbMText
10
-91.875
20
24.5
30
0
40
2.5
41
3.33333333333
71
5
72
1
1
49
7
standard
210
0
220
0
230
1
50
90
73
2
44
1
0
ENDBLK
5
60
330
5E
100
AcDbEntity
8
0
100
AcDbBlockEnd
0
BLOCK
5
62
330
61
100
AcDbEntity
8
0
100
AcDbBlockBegin
2
*D14
70
1
10
0
20
0
3
*D14
1

0
LINE
5
E2
100
AcDbEntity
8
0
6
CONTINUOUS
62
7
370
0
100
AcDbLine
10
-37.5
20
28.625
11
-37.5
21
41.25
0
LINE
5
E3
100
AcDbEntity
8
0
6
CONTINUOUS
62
7
370
0
100
AcDbLine
10
-11.5
20
28.625
11
-11.5
21
41.25
0
LINE
5
E4
100
AcDbEntity
8
0
6
CONTINUOUS
62
7
370
0
100
AcDbLine
10
-37.5
20
40
11
-11.5
21
40
0
SOLID
5
E5
100
AcDbEntity
8
0
6
CONTINUOUS
62
7
370
0
100
AcDbTrace
10
-37.5
20
40
30
0
11
-35
21
40.4162846578
31
0
12
-35
22
39.5837153422
32
0
13
-35
23
39.5837153422
33
0
0
SOLID
5
E6
100
AcDbEntity
8
0
6
CONTINUOUS
62
7
370
0
100
AcDbTrace
10
-11.5
20
40
30
0
11
-14
21
39.5837153422
31
0
12
-14
22
40.4162846578
32
0
13
-14
23
40.4162846578
33
0
0
MTEXT
5
E7
100
AcDbEntity
8
0
6
CONTINUOUS
62
7
370
0
100
AcDbMText
10
-24.5
20
41.875
30
0
40
2.5
41
3.05555555556
71
5
72
1
1
26
7
standard
210
0
220
0
230
1
50
0
73
2
44
1
0
ENDBLK
5
63
330
61
100
AcDbEntity
8
0
100
AcDbBlockEnd
0
BLOCK
5
65
330
64
100
AcDbEntity
8
0
100
AcDbBlockBegin
2
*D3
70
1
10
0
20
0
3
*D3
1

0
LINE
5
E8
100
AcDbEntity
8
0
6
CONTINUOUS
62
7
370
0
100
AcDbLine
10
24
20
49.625
11
24
21
61.25
0
LINE
5
E9
100
AcDbEntity
8
0
6
CONTINUOUS
62
7
370
0
100
AcDbLine
10
21
20
49.625
11
21
21
61.25
0
LINE
5
EA
100
AcDbEntity
8
0
6
CONTINUOUS
62
7
370
0
100
AcDbLine
10
29
20
60
11
16
21
60
0
SOLID
5
EB
100
AcDbEntity
8
0
6
CONTINUOUS
62
7
370
0
100
AcDbTrace
10
24
20
60
30
0
11
26.5
21
60.4162846578
31
0
12
26.5
22
59.5837153422
32
0
13
26.5
23
59.5837153422
33
0
0
SOLID
5
EC
100
AcDbEntity
8
0
6
CONTINUOUS
62
7
370
0
100
AcDbTrace
10
21
20
60
30
0
11
18.5
21
59.5837153422
31
0
12
18.5
22
60.4162846578
32
0
13
18.5
23
60.4162846578
33
0
0
MTEXT
5
ED
100
AcDbEntity
8
0
6
CONTINUOUS
62
7
370
0
100
AcDbMText
10
22.5
20
61.875
30
0
40
2.5
41
1.11111111111
71
5
72
1
1
3
7
standard
210
0
220
0
230
1
50
360
73
2
44
1
0
ENDBLK
5
66
330
64
100
AcDbEntity
8
0
100
AcDbBlockEnd
0
BLOCK
5
68
330
67
100
AcDbEntity
8
0
100
AcDbBlockBegin
2
*D2
70
1
10
0
20
0
3
*D2
1

0
LINE
5
EE
100
AcDbEntity
8
0
6
CONTINUOUS
62
7
370
0
100
AcDbLine
10
21
20
46.625
11
21
21
81.25
0
LINE
5
EF
100
AcDbEntity
8
0
6
CONTINUOUS
62
7
370
0
100
AcDbLine
10
70
20
46.625
11
70
21
81.25
0
LINE
5
F0
100
AcDbEntity
8
0
6
CONTINUOUS
62
7
370
0
100
AcDbLine
10
21
20
80
11
70
21
80
0
SOLID
5
F1
100
AcDbEntity
8
0
6
CONTINUOUS
62
7
370
0
100
AcDbTrace
10
21
20
80
30
0
11
23.5
21
80.4162846578
31
0
12
23.5
22
79.5837153422
32
0
13
23.5
23
79.5837153422
33
0
0
SOLID
5
F2
100
AcDbEntity
8
0
6
CONTINUOUS
62
7
370
0
100
AcDbTrace
10
70
20
80
30
0
11
67.5
21
79.5837153422
31
0
12
67.5
22
80.4162846578
32
0
13
67.5
23
80.4162846578
33
0
0
MTEXT
5
F3
100
AcDbEntity
8
0
6
CONTINUOUS
62
7
370
0
100
AcDbMText
10
45.5
20
81.875
30
0
40
2.5
41
3.33333333333
71
5
72
1
1
49
7
standard
210
0
220
0
230
1
50
0
73
2
44
1
0
ENDBLK
5
69
330
67
100
AcDbEntity
8
0
100
AcDbBlockEnd
0
BLOCK
5
6B
330
6A
100
AcDbEntity
8
0
100
AcDbBlockBegin
2
*D7
70
1
10
0
20
0
3
*D7
1

0
LINE
5
F4
100
AcDbEntity
8
0
6
CONTINUOUS
62
7
370
0
100
AcDbLine
10
66.625
20
4
11
81.25
21
4
0
LINE
5
F5
100
AcDbEntity
8
0
6
CONTINUOUS
62
7
370
0
100
AcDbLine
10
66.625
20
-1.53080849893e-16
11
81.25
21
-3.7351727374e-15
0
LINE
5
F6
100
AcDbEntity
8
0
6
CONTINUOUS
62
7
370
0
100
AcDbLine
10
80
20
9
11
80
21
-5
0
SOLID
5
F7
100
AcDbEntity
8
0
6
CONTINUOUS
62
7
370
0
100
AcDbTrace
10
80
20
4
30
0
11
79.5837153422
21
6.5
31
0
12
80.4162846578
22
6.5
32
0
13
80.4162846578
23
6.5
33
0
0
SOLID
5
F8
100
AcDbEntity
8
0
6
CONTINUOUS
62
7
370
0
100
AcDbTrace
10
80
20
-3.42901103761e-15
30
0
11
80.4162846578
21
-2.5
31
0
12
79.5837153422
22
-2.5
32
0
13
79.5837153422
23
-2.5
33
0
0
MTEXT
5
F9
100
AcDbEntity
8
0
6
CONTINUOUS
62
7
370
0
100
AcDbMText
10
78.125
20
2
30
0
40
2.5
41
1.38888888889
71
5
72
1
1
4
7
standard
210
0
220
0
230
1
50
90
73
2
44
1
0
ENDBLK
5
6C
330
6A
100
AcDbEntity
8
0
100
AcDbBlockEnd
0
BLOCK
5
6E
330
6D
100
AcDbEntity
8
0
100
AcDbBlockBegin
2
*D5
70
1
10
0
20
0
3
*D5
1

0
LINE
5
FA
100
AcDbEntity
8
0
6
CONTINUOUS
62
7
370
0
100
AcDbLine
10
65.625
20
46
11
81.25
21
46
0
LINE
5
FB
100
AcDbEntity
8
0
6
CONTINUOUS
62
7
370
0
100
AcDbLine
10
65.625
20
49
11
81.25
21
49
0
LINE
5
FC
100
AcDbEntity
8
0
6
CONTINUOUS
62
7
370
0
100
AcDbLine
10
80
20
41
11
80
21
54
0
SOLID
5
FD
100
AcDbEntity
8
0
6
CONTINUOUS
62
7
370
0
100
AcDbTrace
10
80
20
46
30
0
11
80.4162846578
21
43.5
31
0
12
79.5837153422
22
43.5
32
0
13
79.5837153422
23
43.5
33
0
0
SOLID
5
FE
100
AcDbEntity
8
0
6
CONTINUOUS
62
7
370
0
100
AcDbTrace
10
80
20
49
30
0
11
79.5837153422
21
51.5
31
0
12
80.4162846578
22
51.5
32
0
13
80.4162846578
23
51.5
33
0
0
MTEXT
5
FF
100
AcDbEntity
8
0
6
CONTINUOUS
62
7
370
0
100
AcDbMText
10
78.125
20
47.5
30
0
40
2.5
41
1.11111111111
71
5
72
1
1
3
7
standard
210
0
220
0
230
1
50
90
73
2
44
1
0
ENDBLK
5
6F
330
6D
100
AcDbEntity
8
0
100
AcDbBlockEnd
0
BLOCK
5
71
330
70
100
AcDbEntity
8
0
100
AcDbBlockBegin
2
*D11
70
1
10
0
20
0
3
*D11
1

0
LINE
5
100
100
AcDbEntity
8
0
6
CONTINUOUS
62
7
370
0
100
AcDbLine
10
1.77048090551e-16
20
20.625
11
1.7350712874e-14
21
81.25
0
LINE
5
101
100
AcDbEntity
8
0
6
CONTINUOUS
62
7
370
0
100
AcDbLine
10
-49
20
20.625
11
-49
21
81.25
0
LINE
5
102
100
AcDbEntity
8
0
6
CONTINUOUS
62
7
370
0
100
AcDbLine
10
1.69966166929e-14
20
80
11
-49
21
80
0
SOLID
5
103
100
AcDbEntity
8
0
6
CONTINUOUS
62
7
370
0
100
AcDbTrace
10
1.69966166929e-14
20
80
30
0
11
-2.5
21
79.5837153422
31
0
12
-2.5
22
80.4162846578
32
0
13
-2.5
23
80.4162846578
33
0
0
SOLID
5
104
100
AcDbEntity
8
0
6
CONTINUOUS
62
7
370
0
100
AcDbTrace
10
-49
20
80
30
0
11
-46.5
21
80.4162846578
31
0
12
-46.5
22
79.5837153422
32
0
13
-46.5
23
79.5837153422
33
0
0
MTEXT
5
105
100
AcDbEntity
8
0
6
CONTINUOUS
62
7
370
0
100
AcDbMText
10
-24.5
20
81.875
30
0
40
2.5
41
3.33333333333
71
5
72
1
1
49
7
standard
210
0
220
0
230
1
50
360
73
2
44
1
0
ENDBLK
5
72
330
70
100
AcDbEntity
8
0
100
AcDbBlockEnd
0
BLOCK
5
74
330
73
100
AcDbEntity
8
0
100
AcDbBlockBegin
2
*D13
70
1
10
0
20
0
3
*D13
1

0
LINE
5
106
100
AcDbEntity
8
0
6
CONTINUOUS
62
7
370
0
100
AcDbLine
10
-37.5
20
28.625
11
-37.5
21
61.25
0
LINE
5
107
100
AcDbEntity
8
0
6
CONTINUOUS
62
7
370
0
100
AcDbLine
10
-49
20
28.625
11
-49
21
61.25
0
LINE
5
108
100
AcDbEntity
8
0
6
CONTINUOUS
62
7
370
0
100
AcDbLine
10
-37.5
20
60
11
-49
21
60
0
SOLID
5
109
100
AcDbEntity
8
0
6
CONTINUOUS
62
7
370
0
100
AcDbTrace
10
-37.5
20
60
30
0
11
-40
21
59.5837153422
31
0
12
-40
22
60.4162846578
32
0
13
-40
23
60.4162846578
33
0
0
SOLID
5
10A
100
AcDbEntity
8
0
6
CONTINUOUS
62
7
370
0
100
AcDbTrace
10
-49
20
60
30
0
11
-46.5
21
60.4162846578
31
0
12
-46.5
22
59.5837153422
32
0
13
-46.5
23
59.5837153422
33
0
0
MTEXT
5
10B
100
AcDbEntity
8
0
6
CONTINUOUS
62
7
370
0
100
AcDbMText
10
-43.25
20
61.875
30
0
40
2.5
41
4.72222222222
71
5
72
1
1
11.5
7
standard
210
0
220
0
230
1
50
360
73
2
44
1
0
ENDBLK
5
75
330
73
100
AcDbEntity
8
0
100
AcDbBlockEnd
0
BLOCK
5
77
330
76
100
AcDbEntity
8
0
100
AcDbBlockBegin
2
*D10
70
1
10
0
20
0
3
*D10
1

0
LINE
5
10C
100
AcDbEntity
8
0
6
CONTINUOUS
62
7
370
0
100
AcDbLine
10
70.5961940777
20
8.59619407771
11
61.4038059223
21
-0.596194077713
0
SOLID
5
10D
100
AcDbEntity
8
0
6
CONTINUOUS
62
7
370
0
100
AcDbTrace
10
67.0606601718
20
5.06066017178
30
0
11
68.5340694203
21
7.12278482916
31
0
12
69.1227848292
22
6.53406942033
32
0
13
69.1227848292
23
6.53406942033
33
0
0
SOLID
5
10E
100
AcDbEntity
8
0
6
CONTINUOUS
62
7
370
0
100
AcDbTrace
10
64.9393398282
20
2.93933982822
30
0
11
63.4659305797
21
0.877215170839
31
0
12
62.8772151708
22
1.46593057967
32
0
13
62.8772151708
23
1.46593057967
33
0
0
MTEXT
5
10F
100
AcDbEntity
8
0
6
CONTINUOUS
62
7
370
0
100
AcDbMText
10
64.6741747853
20
5.32582521472
30
0
40
2.5
41
1.11111111111
71
5
72
1
1
3
7
standard
210
0
220
0
230
1
50
45
73
2
44
1
0
ENDBLK
5
78
330
76
100
AcDbEntity
8
0
100
AcDbBlockEnd
0
BLOCK
5
7A
330
79
100
AcDbEntity
8
0
100
AcDbBlockBegin
2
*D12
70
1
10
0
20
0
3
*D12
1

0
LINE
5
110
100
AcDbEntity
8
0
6
CONTINUOUS
62
7
370
0
100
AcDbLine
10
-11.5
20
28.625
11
-11.5
21
71.25
0
LINE
5
111
100
AcDbEntity
8
0
6
CONTINUOUS
62
7
370
0
100
AcDbLine
10
-49
20
28.625
11
-49
21
71.25
0
LINE
5
112
100
AcDbEntity
8
0
6
CONTINUOUS
62
7
370
0
100
AcDbLine
10
-11.5
20
70
11
-49
21
70
0
SOLID
5
113
100
AcDbEntity
8
0
6
CONTINUOUS
62
7
370
0
100
AcDbTrace
10
-11.5
20
70
30
0
11
-14
21
69.5837153422
31
0
12
-14
22
70.4162846578
32
0
13
-14
23
70.4162846578
33
0
0
SOLID
5
114
100
AcDbEntity
8
0
6
CONTINUOUS
62
7
370
0
100
AcDbTrace
10
-49
20
70
30
0
11
-46.5
21
70.4162846578
31
0
12
-46.5
22
69.5837153422
32
0
13
-46.5
23
69.5837153422
33
0
0
MTEXT
5
115
100
AcDbEntity
8
0
6
CONTINUOUS
62
7
370
0
100
AcDbMText
10
-30.25
20
71.875
30
0
40
2.5
41
5.83333333333
71
5
72
1
1
37.5
7
standard
210
0
220
0
230
1
50
360
73
2
44
1
0
ENDBLK
5
7B
330
79
100
AcDbEntity
8
0
100
AcDbBlockEnd
0
BLOCK
5
7D
330
7C
100
AcDbEntity
8
0
100
AcDbBlockBegin
2
avr-sensors-Edge_Cuts-0
70
0
10
0
20
0
3
avr-sensors-Edge_Cuts-0
1

0
LINE
5
116
100
AcDbEntity
8
0
6
ByLayer
62
256
370
-1
100
AcDbLine
10
13.05
20
-58
11
13.05
21
-16
0
LINE
5
117
100
AcDbEntity
8
0
6
ByLayer
62
256
370
-1
100
AcDbLine
10
12.95
20
-58
11
12.95
21
-16
0
ARC
5
118
100
AcDbEntity
8
0
6
ByLayer
62
256
370
-1
100
AcDbCircle
10
13
20
-16
40
0.05
100
AcDbArc
50
360
51
180
0
ARC
5
119
100
AcDbEntity
8
0
6
ByLayer
62
256
370
-1
100
AcDbCircle
10
13
20
-58
40
0.05
100
AcDbArc
50
180
51
360
0
LINE
5
11A
100
AcDbEntity
8
0
6
ByLayer
62
256
370
-1
100
AcDbLine
10
16
20
-13.05
11
59
21
-13.05
0
LINE
5
11B
100
AcDbEntity
8
0
6
ByLayer
62
256
370
-1
100
AcDbLine
10
16
20
-12.95
11
59
21
-12.95
0
ARC
5
11C
100
AcDbEntity
8
0
6
ByLayer
62
256
370
-1
100
AcDbCircle
10
59
20
-13
40
0.05
100
AcDbArc
50
270
51
90
0
ARC
5
11D
100
AcDbEntity
8
0
6
ByLayer
62
256
370
-1
100
AcDbCircle
10
16
20
-13
40
0.05
100
AcDbArc
50
90
51
270
0
LINE
5
11E
100
AcDbEntity
8
0
6
ByLayer
62
256
370
-1
100
AcDbLine
10
62.05
20
-59
11
62.05
21
-16
0
LINE
5
11F
100
AcDbEntity
8
0
6
ByLayer
62
256
370
-1
100
AcDbLine
10
61.95
20
-59
11
61.95
21
-16
0
ARC
5
120
100
AcDbEntity
8
0
6
ByLayer
62
256
370
-1
100
AcDbCircle
10
62
20
-16
40
0.05
100
AcDbArc
50
360
51
180
0
ARC
5
121
100
AcDbEntity
8
0
6
ByLayer
62
256
370
-1
100
AcDbCircle
10
62
20
-59
40
0.05
100
AcDbArc
50
180
51
360
0
LINE
5
122
100
AcDbEntity
8
0
6
ByLayer
62
256
370
-1
100
AcDbLine
10
17
20
-62.05
11
59
21
-62.05
0
LINE
5
123
100
AcDbEntity
8
0
6
ByLayer
62
256
370
-1
100
AcDbLine
10
17
20
-61.95
11
59
21
-61.95
0
ARC
5
124
100
AcDbEntity
8
0
6
ByLayer
62
256
370
-1
100
AcDbCircle
10
59
20
-62
40
0.05
100
AcDbArc
50
270
51
90
0
ARC
5
125
100
AcDbEntity
8
0
6
ByLayer
62
256
370
-1
100
AcDbCircle
10
17
20
-62
40
0.05
100
AcDbArc
50
90
51
270
0
ARC
5
126
100
AcDbEntity
8
0
6
ByLayer
62
256
370
-1
100
AcDbCircle
10
17
20
-58
40
4
100
AcDbArc
50
180
51
270
0
ARC
5
127
100
AcDbEntity
8
0
6
ByLayer
62
256
370
-1
100
AcDbCircle
10
59
20
-59
40
3
100
AcDbArc
50
270
51
0
0
ARC
5
128
100
AcDbEntity
8
0
6
ByLayer
62
256
370
-1
100
AcDbCircle
10
59
20
-16
40
3
100
AcDbArc
50
0
51
90
0
ARC
5
129
100
AcDbEntity
8
0
6
ByLayer
62
256
370
-1
100
AcDbCircle
10
16
20
-16
40
3
100
AcDbArc
50
90
51
180
0
ENDBLK
5
7E
330
7C
100
AcDbEntity
8
0
100
AcDbBlockEnd
0
BLOCK
5
80
330
7F
100
AcDbEntity
8
0
100
AcDbBlockBegin
2
avr-sensors-Edge_Cuts-0-0
70
0
10
0
20
0
3
avr-sensors-Edge_Cuts-0-0
1

0
LINE
5
12A
100
AcDbEntity
8
0
6
ByLayer
62
256
370
-1
100
AcDbLine
10
13.05
20
-58
11
13.05
21
-16
0
LINE
5
12B
100
AcDbEntity
8
0
6
ByLayer
62
256
370
-1
100
AcDbLine
10
12.95
20
-58
11
12.95
21
-16
0
ARC
5
12C
100
AcDbEntity
8
0
6
ByLayer
62
256
370
-1
100
AcDbCircle
10
13
20
-16
40
0.05
100
AcDbArc
50
360
51
180
0
ARC
5
12D
100
AcDbEntity
8
0
6
ByLayer
62
256
370
-1
100
AcDbCircle
10
13
20
-58
40
0.05
100
AcDbArc
50
180
51
360
0
LINE
5
12E
100
AcDbEntity
8
0
6
ByLayer
62
256
370
-1
100
AcDbLine
10
16
20
-13.05
11
59
21
-13.05
0
LINE
5
12F
100
AcDbEntity
8
0
6
ByLayer
62
256
370
-1
100
AcDbLine
10
16
20
-12.95
11
59
21
-12.95
0
ARC
5
130
100
AcDbEntity
8
0
6
ByLayer
62
256
370
-1
100
AcDbCircle
10
59
20
-13
40
0.05
100
AcDbArc
50
270
51
90
0
ARC
5
131
100
AcDbEntity
8
0
6
ByLayer
62
256
370
-1
100
AcDbCircle
10
16
20
-13
40
0.05
100
AcDbArc
50
90
51
270
0
LINE
5
132
100
AcDbEntity
8
0
6
ByLayer
62
256
370
-1
100
AcDbLine
10
62.05
20
-59
11
62.05
21
-16
0
LINE
5
133
100
AcDbEntity
8
0
6
ByLayer
62
256
370
-1
100
AcDbLine
10
61.95
20
-59
11
61.95
21
-16
0
ARC
5
134
100
AcDbEntity
8
0
6
ByLayer
62
256
370
-1
100
AcDbCircle
10
62
20
-16
40
0.05
100
AcDbArc
50
360
51
180
0
ARC
5
135
100
AcDbEntity
8
0
6
ByLayer
62
256
370
-1
100
AcDbCircle
10
62
20
-59
40
0.05
100
AcDbArc
50
180
51
360
0
LINE
5
136
100
AcDbEntity
8
0
6
ByLayer
62
256
370
-1
100
AcDbLine
10
17
20
-62.05
11
59
21
-62.05
0
LINE
5
137
100
AcDbEntity
8
0
6
ByLayer
62
256
370
-1
100
AcDbLine
10
17
20
-61.95
11
59
21
-61.95
0
ARC
5
138
100
AcDbEntity
8
0
6
ByLayer
62
256
370
-1
100
AcDbCircle
10
59
20
-62
40
0.05
100
AcDbArc
50
270
51
90
0
ARC
5
139
100
AcDbEntity
8
0
6
ByLayer
62
256
370
-1
100
AcDbCircle
10
17
20
-62
40
0.05
100
AcDbArc
50
90
51
270
0
ARC
5
13A
100
AcDbEntity
8
0
6
ByLayer
62
256
370
-1
100
AcDbCircle
10
17
20
-58
40
4
100
AcDbArc
50
180
51
270
0
ARC
5
13B
100
AcDbEntity
8
0
6
ByLayer
62
256
370
-1
100
AcDbCircle
10
59
20
-59
40
3
100
AcDbArc
50
270
51
0
0
ARC
5
13C
100
AcDbEntity
8
0
6
ByLayer
62
256
370
-1
100
AcDbCircle
10
59
20
-16
40
3
100
AcDbArc
50
0
51
90
0
ARC
5
13D
100
AcDbEntity
8
0
6
ByLayer
62
256
370
-1
100
AcDbCircle
10
16
20
-16
40
3
100
AcDbArc
50
90
51
180
0
ENDBLK
5
81
330
7F
100
AcDbEntity
8
0
100
AcDbBlockEnd
0
BLOCK
5
83
330
82
100
AcDbEntity
8
0
100
AcDbBlockBegin
2
avr-sensors-Edge_Cuts-0-0-0
70
0
10
0
20
0
3
avr-sensors-Edge_Cuts-0-0-0
1

0
LINE
5
13E
100
AcDbEntity
8
0
6
ByLayer
62
256
370
-1
100
AcDbLine
10
13.05
20
-58
11
13.05
21
-16
0
LINE
5
13F
100
AcDbEntity
8
0
6
ByLayer
62
256
370
-1
100
AcDbLine
10
12.95
20
-58
11
12.95
21
-16
0
ARC
5
140
100
AcDbEntity
8
0
6
ByLayer
62
256
370
-1
100
AcDbCircle
10
13
20
-16
40
0.05
100
AcDbArc
50
360
51
180
0
ARC
5
141
100
AcDbEntity
8
0
6
ByLayer
62
256
370
-1
100
AcDbCircle
10
13
20
-58
40
0.05
100
AcDbArc
50
180
51
360
0
LINE
5
142
100
AcDbEntity
8
0
6
ByLayer
62
256
370
-1
100
AcDbLine
10
16
20
-13.05
11
59
21
-13.05
0
LINE
5
143
100
AcDbEntity
8
0
6
ByLayer
62
256
370
-1
100
AcDbLine
10
16
20
-12.95
11
59
21
-12.95
0
ARC
5
144
100
AcDbEntity
8
0
6
ByLayer
62
256
370
-1
100
AcDbCircle
10
59
20
-13
40
0.05
100
AcDbArc
50
270
51
90
0
ARC
5
145
100
AcDbEntity
8
0
6
ByLayer
62
256
370
-1
100
AcDbCircle
10
16
20
-13
40
0.05
100
AcDbArc
50
90
51
270
0
LINE
5
146
100
AcDbEntity
8
0
6
ByLayer
62
256
370
-1
100
AcDbLine
10
62.05
20
-59
11
62.05
21
-16
0
LINE
5
147
100
AcDbEntity
8
0
6
ByLayer
62
256
370
-1
100
AcDbLine
10
61.95
20
-59
11
61.95
21
-16
0
ARC
5
148
100
AcDbEntity
8
0
6
ByLayer
62
256
370
-1
100
AcDbCircle
10
62
20
-16
40
0.05
100
AcDbArc
50
360
51
180
0
ARC
5
149
100
AcDbEntity
8
0
6
ByLayer
62
256
370
-1
100
AcDbCircle
10
62
20
-59
40
0.05
100
AcDbArc
50
180
51
360
0
LINE
5
14A
100
AcDbEntity
8
0
6
ByLayer
62
256
370
-1
100
AcDbLine
10
17
20
-62.05
11
59
21
-62.05
0
LINE
5
14B
100
AcDbEntity
8
0
6
ByLayer
62
256
370
-1
100
AcDbLine
10
17
20
-61.95
11
59
21
-61.95
0
ARC
5
14C
100
AcDbEntity
8
0
6
ByLayer
62
256
370
-1
100
AcDbCircle
10
59
20
-62
40
0.05
100
AcDbArc
50
270
51
90
0
ARC
5
14D
100
AcDbEntity
8
0
6
ByLayer
62
256
370
-1
100
AcDbCircle
10
17
20
-62
40
0.05
100
AcDbArc
50
90
51
270
0
ARC
5
14E
100
AcDbEntity
8
0
6
ByLayer
62
256
370
-1
100
AcDbCircle
10
17
20
-58
40
4
100
AcDbArc
50
180
51
270
0
ARC
5
14F
100
AcDbEntity
8
0
6
ByLayer
62
256
370
-1
100
AcDbCircle
10
59
20
-59
40
3
100
AcDbArc
50
270
51
0
0
ARC
5
150
100
AcDbEntity
8
0
6
ByLayer
62
256
370
-1
100
AcDbCircle
10
59
20
-16
40
3
100
AcDbArc
50
0
51
90
0
ARC
5
151
100
AcDbEntity
8
0
6
ByLayer
62
256
370
-1
100
AcDbCircle
10
16
20
-16
40
3
100
AcDbArc
50
90
51
180
0
ENDBLK
5
84
330
82
100
AcDbEntity
8
0
100
AcDbBlockEnd
0
BLOCK
5
86
330
85
100
AcDbEntity
8
0
100
AcDbBlockBegin
2
avr-sensors-Edge_Cuts-0-1
70
0
10
0
20
0
3
avr-sensors-Edge_Cuts-0-1
1

0
LINE
5
152
100
AcDbEntity
8
0
6
ByLayer
62
256
370
-1
100
AcDbLine
10
13.05
20
-58
11
13.05
21
-16
0
LINE
5
153
100
AcDbEntity
8
0
6
ByLayer
62
256
370
-1
100
AcDbLine
10
12.95
20
-58
11
12.95
21
-16
0
ARC
5
154
100
AcDbEntity
8
0
6
ByLayer
62
256
370
-1
100
AcDbCircle
10
13
20
-16
40
0.05
100
AcDbArc
50
360
51
180
0
ARC
5
155
100
AcDbEntity
8
0
6
ByLayer
62
256
370
-1
100
AcDbCircle
10
13
20
-58
40
0.05
100
AcDbArc
50
180
51
360
0
LINE
5
156
100
AcDbEntity
8
0
6
ByLayer
62
256
370
-1
100
AcDbLine
10
16
20
-13.05
11
59
21
-13.05
0
LINE
5
157
100
AcDbEntity
8
0
6
ByLayer
62
256
370
-1
100
AcDbLine
10
16
20
-12.95
11
59
21
-12.95
0
ARC
5
158
100
AcDbEntity
8
0
6
ByLayer
62
256
370
-1
100
AcDbCircle
10
59
20
-13
40
0.05
100
AcDbArc
50
270
51
90
0
ARC
5
159
100
AcDbEntity
8
0
6
ByLayer
62
256
370
-1
100
AcDbCircle
10
16
20
-13
40
0.05
100
AcDbArc
50
90
51
270
0
LINE
5
15A
100
AcDbEntity
8
0
6
ByLayer
62
256
370
-1
100
AcDbLine
10
62.05
20
-59
11
62.05
21
-16
0
LINE
5
15B
100
AcDbEntity
8
0
6
ByLayer
62
256
370
-1
100
AcDbLine
10
61.95
20
-59
11
61.95
21
-16
0
ARC
5
15C
100
AcDbEntity
8
0
6
ByLayer
62
256
370
-1
100
AcDbCircle
10
62
20
-16
40
0.05
100
AcDbArc
50
360
51
180
0
ARC
5
15D
100
AcDbEntity
8
0
6
ByLayer
62
256
370
-1
100
AcDbCircle
10
62
20
-59
40
0.05
100
AcDbArc
50
180
51
360
0
LINE
5
15E
100
AcDbEntity
8
0
6
ByLayer
62
256
370
-1
100
AcDbLine
10
17
20
-62.05
11
59
21
-62.05
0
LINE
5
15F
100
AcDbEntity
8
0
6
ByLayer
62
256
370
-1
100
AcDbLine
10
17
20
-61.95
11
59
21
-61.95
0
ARC
5
160
100
AcDbEntity
8
0
6
ByLayer
62
256
370
-1
100
AcDbCircle
10
59
20
-62
40
0.05
100
AcDbArc
50
270
51
90
0
ARC
5
161
100
AcDbEntity
8
0
6
ByLayer
62
256
370
-1
100
AcDbCircle
10
17
20
-62
40
0.05
100
AcDbArc
50
90
51
270
0
ARC
5
162
100
AcDbEntity
8
0
6
ByLayer
62
256
370
-1
100
AcDbCircle
10
17
20
-58
40
4
100
AcDbArc
50
180
51
270
0
ARC
5
163
100
AcDbEntity
8
0
6
ByLayer
62
256
370
-1
100
AcDbCircle
10
59
20
-59
40
3
100
AcDbArc
50
270
51
0
0
ARC
5
164
100
AcDbEntity
8
0
6
ByLayer
62
256
370
-1
100
AcDbCircle
10
59
20
-16
40
3
100
AcDbArc
50
0
51
90
0
ARC
5
165
100
AcDbEntity
8
0
6
ByLayer
62
256
370
-1
100
AcDbCircle
10
16
20
-16
40
3
100
AcDbArc
50
90
51
180
0
ENDBLK
5
87
330
85
100
AcDbEntity
8
0
100
AcDbBlockEnd
0
BLOCK
5
89
330
88
100
AcDbEntity
8
0
100
AcDbBlockBegin
2
avr-sensors-Edge_Cuts-0-0-1
70
0
10
0
20
0
3
avr-sensors-Edge_Cuts-0-0-1
1

0
LINE
5
166
100
AcDbEntity
8
0
6
ByLayer
62
256
370
-1
100
AcDbLine
10
13.05
20
-58
11
13.05
21
-16
0
LINE
5
167
100
AcDbEntity
8
0
6
ByLayer
62
256
370
-1
100
AcDbLine
10
12.95
20
-58
11
12.95
21
-16
0
ARC
5
168
100
AcDbEntity
8
0
6
ByLayer
62
256
370
-1
100
AcDbCircle
10
13
20
-16
40
0.05
100
AcDbArc
50
360
51
180
0
ARC
5
169
100
AcDbEntity
8
0
6
ByLayer
62
256
370
-1
100
AcDbCircle
10
13
20
-58
40
0.05
100
AcDbArc
50
180
51
360
0
LINE
5
16A
100
AcDbEntity
8
0
6
ByLayer
62
256
370
-1
100
AcDbLine
10
16
20
-13.05
11
59
21
-13.05
0
LINE
5
16B
100
AcDbEntity
8
0
6
ByLayer
62
256
370
-1
100
AcDbLine
10
16
20
-12.95
11
59
21
-12.95
0
ARC
5
16C
100
AcDbEntity
8
0
6
ByLayer
62
256
370
-1
100
AcDbCircle
10
59
20
-13
40
0.05
100
AcDbArc
50
270
51
90
0
ARC
5
16D
100
AcDbEntity
8
0
6
ByLayer
62
256
370
-1
100
AcDbCircle
10
16
20
-13
40
0.05
100
AcDbArc
50
90
51
270
0
LINE
5
16E
100
AcDbEntity
8
0
6
ByLayer
62
256
370
-1
100
AcDbLine
10
62.05
20
-59
11
62.05
21
-16
0
LINE
5
16F
100
AcDbEntity
8
0
6
ByLayer
62
256
370
-1
100
AcDbLine
10
61.95
20
-59
11
61.95
21
-16
0
ARC
5
170
100
AcDbEntity
8
0
6
ByLayer
62
256
370
-1
100
AcDbCircle
10
62
20
-16
40
0.05
100
AcDbArc
50
360
51
180
0
ARC
5
171
100
AcDbEntity
8
0
6
ByLayer
62
256
370
-1
100
AcDbCircle
10
62
20
-59
40
0.05
100
AcDbArc
50
180
51
360
0
LINE
5
172
100
AcDbEntity
8
0
6
ByLayer
62
256
370
-1
100
AcDbLine
10
17
20
-62.05
11
59
21
-62.05
0
LINE
5
173
100
AcDbEntity
8
0
6
ByLayer
62
256
370
-1
100
AcDbLine
10
17
20
-61.95
11
59
21
-61.95
0
ARC
5
174
100
AcDbEntity
8
0
6
ByLayer
62
256
370
-1
100
AcDbCircle
10
59
20
-62
40
0.05
100
AcDbArc
50
270
51
90
0
ARC
5
175
100
AcDbEntity
8
0
6
ByLayer
62
256
370
-1
100
AcDbCircle
10
17
20
-62
40
0.05
100
AcDbArc
50
90
51
270
0
ARC
5
176
100
AcDbEntity
8
0
6
ByLayer
62
256
370
-1
100
AcDbCircle
10
17
20
-58
40
4
100
AcDbArc
50
180
51
270
0
ARC
5
177
100
AcDbEntity
8
0
6
ByLayer
62
256
370
-1
100
AcDbCircle
10
59
20
-59
40
3
100
AcDbArc
50
270
51
0
0
ARC
5
178
100
AcDbEntity
8
0
6
ByLayer
62
256
370
-1
100
AcDbCircle
10
59
20
-16
40
3
100
AcDbArc
50
0
51
90
0
ARC
5
179
100
AcDbEntity
8
0
6
ByLayer
62
256
370
-1
100
AcDbCircle
10
16
20
-16
40
3
100
AcDbArc
50
90
51
180
0
ENDBLK
5
8A
330
88
100
AcDbEntity
8
0
100
AcDbBlockEnd
0
BLOCK
5
8C
330
8B
100
AcDbEntity
8
0
100
AcDbBlockBegin
2
avr-sensors-Edge_Cuts-0-0-1-0
70
0
10
0
20
0
3
avr-sensors-Edge_Cuts-0-0-1-0
1

0
LINE
5
17A
100
AcDbEntity
8
0
6
ByLayer
62
256
370
-1
100
AcDbLine
10
13.05
20
-58
11
13.05
21
-16
0
LINE
5
17B
100
AcDbEntity
8
0
6
ByLayer
62
256
370
-1
100
AcDbLine
10
12.95
20
-58
11
12.95
21
-16
0
ARC
5
17C
100
AcDbEntity
8
0
6
ByLayer
62
256
370
-1
100
AcDbCircle
10
13
20
-16
40
0.05
100
AcDbArc
50
360
51
180
0
ARC
5
17D
100
AcDbEntity
8
0
6
ByLayer
62
256
370
-1
100
AcDbCircle
10
13
20
-58
40
0.05
100
AcDbArc
50
180
51
360
0
LINE
5
17E
100
AcDbEntity
8
0
6
ByLayer
62
256
370
-1
100
AcDbLine
10
16
20
-13.05
11
59
21
-13.05
0
LINE
5
17F
100
AcDbEntity
8
0
6
ByLayer
62
256
370
-1
100
AcDbLine
10
16
20
-12.95
11
59
21
-12.95
0
ARC
5
180
100
AcDbEntity
8
0
6
ByLayer
62
256
370
-1
100
AcDbCircle
10
59
20
-13
40
0.05
100
AcDbArc
50
270
51
90
0
ARC
5
181
100
AcDbEntity
8
0
6
ByLayer
62
256
370
-1
100
AcDbCircle
10
16
20
-13
40
0.05
100
AcDbArc
50
90
51
270
0
LINE
5
182
100
AcDbEntity
8
0
6
ByLayer
62
256
370
-1
100
AcDbLine
10
62.05
20
-59
11
62.05
21
-16
0
LINE
5
183
100
AcDbEntity
8
0
6
ByLayer
62
256
370
-1
100
AcDbLine
10
61.95
20
-59
11
61.95
21
-16
0
ARC
5
184
100
AcDbEntity
8
0
6
ByLayer
62
256
370
-1
100
AcDbCircle
10
62
20
-16
40
0.05
100
AcDbArc
50
360
51
180
0
ARC
5
185
100
AcDbEntity
8
0
6
ByLayer
62
256
370
-1
100
AcDbCircle
10
62
20
-59
40
0.05
100
AcDbArc
50
180
51
360
0
LINE
5
186
100
AcDbEntity
8
0
6
ByLayer
62
256
370
-1
100
AcDbLine
10
17
20
-62.05
11
59
21
-62.05
0
LINE
5
187
100
AcDbEntity
8
0
6
ByLayer
62
256
370
-1
100
AcDbLine
10
17
20
-61.95
11
59
21
-61.95
0
ARC
5
188
100
AcDbEntity
8
0
6
ByLayer
62
256
370
-1
100
AcDbCircle
10
59
20
-62
40
0.05
100
AcDbArc
50
270
51
90
0
ARC
5
189
100
AcDbEntity
8
0
6
ByLayer
62
256
370
-1
100
AcDbCircle
10
17
20
-62
40
0.05
100
AcDbArc
50
90
51
270
0
ARC
5
18A
100
AcDbEntity
8
0
6
ByLayer
62
256
370
-1
100
AcDbCircle
10
17
20
-58
40
4
100
AcDbArc
50
180
51
270
0
ARC
5
18B
100
AcDbEntity
8
0
6
ByLayer
62
256
370
-1
100
AcDbCircle
10
59
20
-59
40
3
100
AcDbArc
50
270
51
0
0
ARC
5
18C
100
AcDbEntity
8
0
6
ByLayer
62
256
370
-1
100
AcDbCircle
10
59
20
-16
40
3
100
AcDbArc
50
0
51
90
0
ARC
5
18D
100
AcDbEntity
8
0
6
ByLayer
62
256
370
-1
100
AcDbCircle
10
16
20
-16
40
3
100
AcDbArc
50
90
51
180
0
ENDBLK
5
8D
330
8B
100
AcDbEntity
8
0
100
AcDbBlockEnd
0
BLOCK
5
8F
330
8E
100
AcDbEntity
8
0
100
AcDbBlockBegin
2
avr-sensors-Edge_Cuts-0-0-1-0-0
70
0
10
0
20
0
3
avr-sensors-Edge_Cuts-0-0-1-0-0
1

0
LINE
5
18E
100
AcDbEntity
8
0
6
ByLayer
62
256
370
-1
100
AcDbLine
10
13.05
20
-58
11
13.05
21
-16
0
LINE
5
18F
100
AcDbEntity
8
0
6
ByLayer
62
256
370
-1
100
AcDbLine
10
12.95
20
-58
11
12.95
21
-16
0
ARC
5
190
100
AcDbEntity
8
0
6
ByLayer
62
256
370
-1
100
AcDbCircle
10
13
20
-16
40
0.05
100
AcDbArc
50
360
51
180
0
ARC
5
191
100
AcDbEntity
8
0
6
ByLayer
62
256
370
-1
100
AcDbCircle
10
13
20
-58
40
0.05
100
AcDbArc
50
180
51
360
0
LINE
5
192
100
AcDbEntity
8
0
6
ByLayer
62
256
370
-1
100
AcDbLine
10
16
20
-13.05
11
59
21
-13.05
0
LINE
5
193
100
AcDbEntity
8
0
6
ByLayer
62
256
370
-1
100
AcDbLine
10
16
20
-12.95
11
59
21
-12.95
0
ARC
5
194
100
AcDbEntity
8
0
6
ByLayer
62
256
370
-1
100
AcDbCircle
10
59
20
-13
40
0.05
100
AcDbArc
50
270
51
90
0
ARC
5
195
100
AcDbEntity
8
0
6
ByLayer
62
256
370
-1
100
AcDbCircle
10
16
20
-13
40
0.05
100
AcDbArc
50
90
51
270
0
LINE
5
196
100
AcDbEntity
8
0
6
ByLayer
62
256
370
-1
100
AcDbLine
10
62.05
20
-59
11
62.05
21
-16
0
LINE
5
197
100
AcDbEntity
8
0
6
ByLayer
62
256
370
-1
100
AcDbLine
10
61.95
20
-59
11
61.95
21
-16
0
ARC
5
198
100
AcDbEntity
8
0
6
ByLayer
62
256
370
-1
100
AcDbCircle
10
62
20
-16
40
0.05
100
AcDbArc
50
360
51
180
0
ARC
5
199
100
AcDbEntity
8
0
6
ByLayer
62
256
370
-1
100
AcDbCircle
10
62
20
-59
40
0.05
100
AcDbArc
50
180
51
360
0
LINE
5
19A
100
AcDbEntity
8
0
6
ByLayer
62
256
370
-1
100
AcDbLine
10
17
20
-62.05
11
59
21
-62.05
0
LINE
5
19B
100
AcDbEntity
8
0
6
ByLayer
62
256
370
-1
100
AcDbLine
10
17
20
-61.95
11
59
21
-61.95
0
ARC
5
19C
100
AcDbEntity
8
0
6
ByLayer
62
256
370
-1
100
AcDbCircle
10
59
20
-62
40
0.05
100
AcDbArc
50
270
51
90
0
ARC
5
19D
100
AcDbEntity
8
0
6
ByLayer
62
256
370
-1
100
AcDbCircle
10
17
20
-62
40
0.05
100
AcDbArc
50
90
51
270
0
ARC
5
19E
100
AcDbEntity
8
0
6
ByLayer
62
256
370
-1
100
AcDbCircle
10
17
20
-58
40
4
100
AcDbArc
50
180
51
270
0
ARC
5
19F
100
AcDbEntity
8
0
6
ByLayer
62
256
370
-1
100
AcDbCircle
10
59
20
-59
40
3
100
AcDbArc
50
270
51
0
0
ARC
5
1A0
100
AcDbEntity
8
0
6
ByLayer
62
256
370
-1
100
AcDbCircle
10
59
20
-16
40
3
100
AcDbArc
50
0
51
90
0
ARC
5
1A1
100
AcDbEntity
8
0
6
ByLayer
62
256
370
-1
100
AcDbCircle
10
16
20
-16
40
3
100
AcDbArc
50
90
51
180
0
ENDBLK
5
90
330
8E
100
AcDbEntity
8
0
100
AcDbBlockEnd
0
BLOCK
5
92
330
91
100
AcDbEntity
8
0
100
AcDbBlockBegin
2
noname0
70
0
10
0
20
0
3
noname0
1

0
ENDBLK
5
93
330
91
100
AcDbEntity
8
0
100
AcDbBlockEnd
0
BLOCK
5
95
330
94
100
AcDbEntity
8
0
100
AcDbBlockBegin
2
avr-sensors-Edge_Cuts-0-0-1-0-0-0
70
0
10
0
20
0
3
avr-sensors-Edge_Cuts-0-0-1-0-0-0
1

0
LINE
5
1A2
100
AcDbEntity
8
0
6
ByLayer
62
256
370
-1
100
AcDbLine
10
13.05
20
-58
11
13.05
21
-16
0
LINE
5
1A3
100
AcDbEntity
8
0
6
ByLayer
62
256
370
-1
100
AcDbLine
10
12.95
20
-58
11
12.95
21
-16
0
ARC
5
1A4
100
AcDbEntity
8
0
6
ByLayer
62
256
370
-1
100
AcDbCircle
10
13
20
-16
40
0.05
100
AcDbArc
50
360
51
180
0
ARC
5
1A5
100
AcDbEntity
8
0
6
ByLayer
62
256
370
-1
100
AcDbCircle
10
13
20
-58
40
0.05
100
AcDbArc
50
180
51
360
0
LINE
5
1A6
100
AcDbEntity
8
0
6
ByLayer
62
256
370
-1
100
AcDbLine
10
16
20
-13.05
11
59
21
-13.05
0
LINE
5
1A7
100
AcDbEntity
8
0
6
ByLayer
62
256
370
-1
100
AcDbLine
10
16
20
-12.95
11
59
21
-12.95
0
ARC
5
1A8
100
AcDbEntity
8
0
6
ByLayer
62
256
370
-1
100
AcDbCircle
10
59
20
-13
40
0.05
100
AcDbArc
50
270
51
90
0
ARC
5
1A9
100
AcDbEntity
8
0
6
ByLayer
62
256
370
-1
100
AcDbCircle
10
16
20
-13
40
0.05
100
AcDbArc
50
90
51
270
0
LINE
5
1AA
100
AcDbEntity
8
0
6
ByLayer
62
256
370
-1
100
AcDbLine
10
62.05
20
-59
11
62.05
21
-16
0
LINE
5
1AB
100
AcDbEntity
8
0
6
ByLayer
62
256
370
-1
100
AcDbLine
10
61.95
20
-59
11
61.95
21
-16
0
ARC
5
1AC
100
AcDbEntity
8
0
6
ByLayer
62
256
370
-1
100
AcDbCircle
10
62
20
-16
40
0.05
100
AcDbArc
50
360
51
180
0
ARC
5
1AD
100
AcDbEntity
8
0
6
ByLayer
62
256
370
-1
100
AcDbCircle
10
62
20
-59
40
0.05
100
AcDbArc
50
180
51
360
0
LINE
5
1AE
100
AcDbEntity
8
0
6
ByLayer
62
256
370
-1
100
AcDbLine
10
17
20
-62.05
11
59
21
-62.05
0
LINE
5
1AF
100
AcDbEntity
8
0
6
ByLayer
62
256
370
-1
100
AcDbLine
10
17
20
-61.95
11
59
21
-61.95
0
ARC
5
1B0
100
AcDbEntity
8
0
6
ByLayer
62
256
370
-1
100
AcDbCircle
10
59
20
-62
40
0.05
100
AcDbArc
50
270
51
90
0
ARC
5
1B1
100
AcDbEntity
8
0
6
ByLayer
62
256
370
-1
100
AcDbCircle
10
17
20
-62
40
0.05
100
AcDbArc
50
90
51
270
0
ARC
5
1B2
100
AcDbEntity
8
0
6
ByLayer
62
256
370
-1
100
AcDbCircle
10
17
20
-58
40
4
100
AcDbArc
50
180
51
270
0
ARC
5
1B3
100
AcDbEntity
8
0
6
ByLayer
62
256
370
-1
100
AcDbCircle
10
59
20
-59
40
3
100
AcDbArc
50
270
51
0
0
ARC
5
1B4
100
AcDbEntity
8
0
6
ByLayer
62
256
370
-1
100
AcDbCircle
10
59
20
-16
40
3
100
AcDbArc
50
0
51
90
0
ARC
5
1B5
100
AcDbEntity
8
0
6
ByLayer
62
256
370
-1
100
AcDbCircle
10
16
20
-16
40
3
100
AcDbArc
50
90
51
180
0
ENDBLK
5
96
330
94
100
AcDbEntity
8
0
100
AcDbBlockEnd
0
BLOCK
5
98
330
97
100
AcDbEntity
8
0
100
AcDbBlockBegin
2
noname1
70
0
10
0
20
0
3
noname1
1

0
ENDBLK
5
99
330
97
100
AcDbEntity
8
0
100
AcDbBlockEnd
0
BLOCK
5
9B
330
9A
100
AcDbEntity
8
0
100
AcDbBlockBegin
2
avr-sensors-Edge_Cuts-0-0-1-0-0-0-0
70
0
10
0
20
0
3
avr-sensors-Edge_Cuts-0-0-1-0-0-0-0
1

0
LINE
5
1B6
100
AcDbEntity
8
0
6
ByLayer
62
256
370
-1
100
AcDbLine
10
13.05
20
-58
11
13.05
21
-16
0
LINE
5
1B7
100
AcDbEntity
8
0
6
ByLayer
62
256
370
-1
100
AcDbLine
10
12.95
20
-58
11
12.95
21
-16
0
ARC
5
1B8
100
AcDbEntity
8
0
6
ByLayer
62
256
370
-1
100
AcDbCircle
10
13
20
-16
40
0.05
100
AcDbArc
50
360
51
180
0
ARC
5
1B9
100
AcDbEntity
8
0
6
ByLayer
62
256
370
-1
100
AcDbCircle
10
13
20
-58
40
0.05
100
AcDbArc
50
180
51
360
0
LINE
5
1BA
100
AcDbEntity
8
0
6
ByLayer
62
256
370
-1
100
AcDbLine
10
16
20
-13.05
11
59
21
-13.05
0
LINE
5
1BB
100
AcDbEntity
8
0
6
ByLayer
62
256
370
-1
100
AcDbLine
10
16
20
-12.95
11
59
21
-12.95
0
ARC
5
1BC
100
AcDbEntity
8
0
6
ByLayer
62
256
370
-1
100
AcDbCircle
10
59
20
-13
40
0.05
100
AcDbArc
50
270
51
90
0
ARC
5
1BD
100
AcDbEntity
8
0
6
ByLayer
62
256
370
-1
100
AcDbCircle
10
16
20
-13
40
0.05
100
AcDbArc
50
90
51
270
0
LINE
5
1BE
100
AcDbEntity
8
0
6
ByLayer
62
256
370
-1
100
AcDbLine
10
62.05
20
-59
11
62.05
21
-16
0
LINE
5
1BF
100
AcDbEntity
8
0
6
ByLayer
62
256
370
-1
100
AcDbLine
10
61.95
20
-59
11
61.95
21
-16
0
ARC
5
1C0
100
AcDbEntity
8
0
6
ByLayer
62
256
370
-1
100
AcDbCircle
10
62
20
-16
40
0.05
100
AcDbArc
50
360
51
180
0
ARC
5
1C1
100
AcDbEntity
8
0
6
ByLayer
62
256
370
-1
100
AcDbCircle
10
62
20
-59
40
0.05
100
AcDbArc
50
180
51
360
0
LINE
5
1C2
100
AcDbEntity
8
0
6
ByLayer
62
256
370
-1
100
AcDbLine
10
17
20
-62.05
11
59
21
-62.05
0
LINE
5
1C3
100
AcDbEntity
8
0
6
ByLayer
62
256
370
-1
100
AcDbLine
10
17
20
-61.95
11
59
21
-61.95
0
ARC
5
1C4
100
AcDbEntity
8
0
6
ByLayer
62
256
370
-1
100
AcDbCircle
10
59
20
-62
40
0.05
100
AcDbArc
50
270
51
90
0
ARC
5
1C5
100
AcDbEntity
8
0
6
ByLayer
62
256
370
-1
100
AcDbCircle
10
17
20
-62
40
0.05
100
AcDbArc
50
90
51
270
0
ARC
5
1C6
100
AcDbEntity
8
0
6
ByLayer
62
256
370
-1
100
AcDbCircle
10
17
20
-58
40
4
100
AcDbArc
50
180
51
270
0
ARC
5
1C7
100
AcDbEntity
8
0
6
ByLayer
62
256
370
-1
100
AcDbCircle
10
59
20
-59
40
3
100
AcDbArc
50
270
51
0
0
ARC
5
1C8
100
AcDbEntity
8
0
6
ByLayer
62
256
370
-1
100
AcDbCircle
10
59
20
-16
40
3
100
AcDbArc
50
0
51
90
0
ARC
5
1C9
100
AcDbEntity
8
0
6
ByLayer
62
256
370
-1
100
AcDbCircle
10
16
20
-16
40
3
100
AcDbArc
50
90
51
180
0
ENDBLK
5
9C
330
9A
100
AcDbEntity
8
0
100
AcDbBlockEnd
0
BLOCK
5
9E
330
9D
100
AcDbEntity
8
0
100
AcDbBlockBegin
2
noname2
70
0
10
0
20
0
3
noname2
1

0
ENDBLK
5
9F
330
9D
100
AcDbEntity
8
0
100
AcDbBlockEnd
0
BLOCK
5
A1
330
A0
100
AcDbEntity
8
0
100
AcDbBlockBegin
2
avr-sensors-Edge_Cuts-0-0-1-0-1
70
0
10
0
20
0
3
avr-sensors-Edge_Cuts-0-0-1-0-1
1

0
LINE
5
1CA
100
AcDbEntity
8
0
6
ByLayer
62
256
370
-1
100
AcDbLine
10
13.05
20
-58
11
13.05
21
-16
0
LINE
5
1CB
100
AcDbEntity
8
0
6
ByLayer
62
256
370
-1
100
AcDbLine
10
12.95
20
-58
11
12.95
21
-16
0
ARC
5
1CC
100
AcDbEntity
8
0
6
ByLayer
62
256
370
-1
100
AcDbCircle
10
13
20
-16
40
0.05
100
AcDbArc
50
360
51
180
0
ARC
5
1CD
100
AcDbEntity
8
0
6
ByLayer
62
256
370
-1
100
AcDbCircle
10
13
20
-58
40
0.05
100
AcDbArc
50
180
51
360
0
LINE
5
1CE
100
AcDbEntity
8
0
6
ByLayer
62
256
370
-1
100
AcDbLine
10
16
20
-13.05
11
59
21
-13.05
0
LINE
5
1CF
100
AcDbEntity
8
0
6
ByLayer
62
256
370
-1
100
AcDbLine
10
16
20
-12.95
11
59
21
-12.95
0
ARC
5
1D0
100
AcDbEntity
8
0
6
ByLayer
62
256
370
-1
100
AcDbCircle
10
59
20
-13
40
0.05
100
AcDbArc
50
270
51
90
0
ARC
5
1D1
100
AcDbEntity
8
0
6
ByLayer
62
256
370
-1
100
AcDbCircle
10
16
20
-13
40
0.05
100
AcDbArc
50
90
51
270
0
LINE
5
1D2
100
AcDbEntity
8
0
6
ByLayer
62
256
370
-1
100
AcDbLine
10
62.05
20
-59
11
62.05
21
-16
0
LINE
5
1D3
100
AcDbEntity
8
0
6
ByLayer
62
256
370
-1
100
AcDbLine
10
61.95
20
-59
11
61.95
21
-16
0
ARC
5
1D4
100
AcDbEntity
8
0
6
ByLayer
62
256
370
-1
100
AcDbCircle
10
62
20
-16
40
0.05
100
AcDbArc
50
360
51
180
0
ARC
5
1D5
100
AcDbEntity
8
0
6
ByLayer
62
256
370
-1
100
AcDbCircle
10
62
20
-59
40
0.05
100
AcDbArc
50
180
51
360
0
LINE
5
1D6
100
AcDbEntity
8
0
6
ByLayer
62
256
370
-1
100
AcDbLine
10
17
20
-62.05
11
59
21
-62.05
0
LINE
5
1D7
100
AcDbEntity
8
0
6
ByLayer
62
256
370
-1
100
AcDbLine
10
17
20
-61.95
11
59
21
-61.95
0
ARC
5
1D8
100
AcDbEntity
8
0
6
ByLayer
62
256
370
-1
100
AcDbCircle
10
59
20
-62
40
0.05
100
AcDbArc
50
270
51
90
0
ARC
5
1D9
100
AcDbEntity
8
0
6
ByLayer
62
256
370
-1
100
AcDbCircle
10
17
20
-62
40
0.05
100
AcDbArc
50
90
51
270
0
ARC
5
1DA
100
AcDbEntity
8
0
6
ByLayer
62
256
370
-1
100
AcDbCircle
10
17
20
-58
40
4
100
AcDbArc
50
180
51
270
0
ARC
5
1DB
100
AcDbEntity
8
0
6
ByLayer
62
256
370
-1
100
AcDbCircle
10
59
20
-59
40
3
100
AcDbArc
50
270
51
0
0
ARC
5
1DC
100
AcDbEntity
8
0
6
ByLayer
62
256
370
-1
100
AcDbCircle
10
59
20
-16
40
3
100
AcDbArc
50
0
51
90
0
ARC
5
1DD
100
AcDbEntity
8
0
6
ByLayer
62
256
370
-1
100
AcDbCircle
10
16
20
-16
40
3
100
AcDbArc
50
90
51
180
0
ENDBLK
5
A2
330
A0
100
AcDbEntity
8
0
100
AcDbBlockEnd
0
BLOCK
5
A4
330
A3
100
AcDbEntity
8
0
100
AcDbBlockBegin
2
avr-sensors-Edge_Cuts-0-0-1-0-1-0
70
0
10
0
20
0
3
avr-sensors-Edge_Cuts-0-0-1-0-1-0
1

0
LINE
5
1DE
100
AcDbEntity
8
0
6
ByLayer
62
256
370
-1
100
AcDbLine
10
13.05
20
-58
11
13.05
21
-16
0
LINE
5
1DF
100
AcDbEntity
8
0
6
ByLayer
62
256
370
-1
100
AcDbLine
10
12.95
20
-58
11
12.95
21
-16
0
ARC
5
1E0
100
AcDbEntity
8
0
6
ByLayer
62
256
370
-1
100
AcDbCircle
10
13
20
-16
40
0.05
100
AcDbArc
50
360
51
180
0
ARC
5
1E1
100
AcDbEntity
8
0
6
ByLayer
62
256
370
-1
100
AcDbCircle
10
13
20
-58
40
0.05
100
AcDbArc
50
180
51
360
0
LINE
5
1E2
100
AcDbEntity
8
0
6
ByLayer
62
256
370
-1
100
AcDbLine
10
16
20
-13.05
11
59
21
-13.05
0
LINE
5
1E3
100
AcDbEntity
8
0
6
ByLayer
62
256
370
-1
100
AcDbLine
10
16
20
-12.95
11
59
21
-12.95
0
ARC
5
1E4
100
AcDbEntity
8
0
6
ByLayer
62
256
370
-1
100
AcDbCircle
10
59
20
-13
40
0.05
100
AcDbArc
50
270
51
90
0
ARC
5
1E5
100
AcDbEntity
8
0
6
ByLayer
62
256
370
-1
100
AcDbCircle
10
16
20
-13
40
0.05
100
AcDbArc
50
90
51
270
0
LINE
5
1E6
100
AcDbEntity
8
0
6
ByLayer
62
256
370
-1
100
AcDbLine
10
62.05
20
-59
11
62.05
21
-16
0
LINE
5
1E7
100
AcDbEntity
8
0
6
ByLayer
62
256
370
-1
100
AcDbLine
10
61.95
20
-59
11
61.95
21
-16
0
ARC
5
1E8
100
AcDbEntity
8
0
6
ByLayer
62
256
370
-1
100
AcDbCircle
10
62
20
-16
40
0.05
100
AcDbArc
50
360
51
180
0
ARC
5
1E9
100
AcDbEntity
8
0
6
ByLayer
62
256
370
-1
100
AcDbCircle
10
62
20
-59
40
0.05
100
AcDbArc
50
180
51
360
0
LINE
5
1EA
100
AcDbEntity
8
0
6
ByLayer
62
256
370
-1
100
AcDbLine
10
17
20
-62.05
11
59
21
-62.05
0
LINE
5
1EB
100
AcDbEntity
8
0
6
ByLayer
62
256
370
-1
100
AcDbLine
10
17
20
-61.95
11
59
21
-61.95
0
ARC
5
1EC
100
AcDbEntity
8
0
6
ByLayer
62
256
370
-1
100
AcDbCircle
10
59
20
-62
40
0.05
100
AcDbArc
50
270
51
90
0
ARC
5
1ED
100
AcDbEntity
8
0
6
ByLayer
62
256
370
-1
100
AcDbCircle
10
17
20
-62
40
0.05
100
AcDbArc
50
90
51
270
0
ARC
5
1EE
100
AcDbEntity
8
0
6
ByLayer
62
256
370
-1
100
AcDbCircle
10
17
20
-58
40
4
100
AcDbArc
50
180
51
270
0
ARC
5
1EF
100
AcDbEntity
8
0
6
ByLayer
62
256
370
-1
100
AcDbCircle
10
59
20
-59
40
3
100
AcDbArc
50
270
51
0
0
ARC
5
1F0
100
AcDbEntity
8
0
6
ByLayer
62
256
370
-1
100
AcDbCircle
10
59
20
-16
40
3
100
AcDbArc
50
0
51
90
0
ARC
5
1F1
100
AcDbEntity
8
0
6
ByLayer
62
256
370
-1
100
AcDbCircle
10
16
20
-16
40
3
100
AcDbArc
50
90
51
180
0
ENDBLK
5
A5
330
A3
100
AcDbEntity
8
0
100
AcDbBlockEnd
0
BLOCK
5
A7
330
A6
100
AcDbEntity
8
0
100
AcDbBlockBegin
2
noname3
70
0
10
0
20
0
3
noname3
1

0
ENDBLK
5
A8
330
A6
100
AcDbEntity
8
0
100
AcDbBlockEnd
0
BLOCK
5
AA
330
A9
100
AcDbEntity
8
0
100
AcDbBlockBegin
2
avr-sensors-Edge_Cuts-0-0-1-1
70
0
10
0
20
0
3
avr-sensors-Edge_Cuts-0-0-1-1
1

0
LINE
5
1F2
100
AcDbEntity
8
0
6
ByLayer
62
256
370
-1
100
AcDbLine
10
13.05
20
-58
11
13.05
21
-16
0
LINE
5
1F3
100
AcDbEntity
8
0
6
ByLayer
62
256
370
-1
100
AcDbLine
10
12.95
20
-58
11
12.95
21
-16
0
ARC
5
1F4
100
AcDbEntity
8
0
6
ByLayer
62
256
370
-1
100
AcDbCircle
10
13
20
-16
40
0.05
100
AcDbArc
50
360
51
180
0
ARC
5
1F5
100
AcDbEntity
8
0
6
ByLayer
62
256
370
-1
100
AcDbCircle
10
13
20
-58
40
0.05
100
AcDbArc
50
180
51
360
0
LINE
5
1F6
100
AcDbEntity
8
0
6
ByLayer
62
256
370
-1
100
AcDbLine
10
16
20
-13.05
11
59
21
-13.05
0
LINE
5
1F7
100
AcDbEntity
8
0
6
ByLayer
62
256
370
-1
100
AcDbLine
10
16
20
-12.95
11
59
21
-12.95
0
ARC
5
1F8
100
AcDbEntity
8
0
6
ByLayer
62
256
370
-1
100
AcDbCircle
10
59
20
-13
40
0.05
100
AcDbArc
50
270
51
90
0
ARC
5
1F9
100
AcDbEntity
8
0
6
ByLayer
62
256
370
-1
100
AcDbCircle
10
16
20
-13
40
0.05
100
AcDbArc
50
90
51
270
0
LINE
5
1FA
100
AcDbEntity
8
0
6
ByLayer
62
256
370
-1
100
AcDbLine
10
62.05
20
-59
11
62.05
21
-16
0
LINE
5
1FB
100
AcDbEntity
8
0
6
ByLayer
62
256
370
-1
100
AcDbLine
10
61.95
20
-59
11
61.95
21
-16
0
ARC
5
1FC
100
AcDbEntity
8
0
6
ByLayer
62
256
370
-1
100
AcDbCircle
10
62
20
-16
40
0.05
100
AcDbArc
50
360
51
180
0
ARC
5
1FD
100
AcDbEntity
8
0
6
ByLayer
62
256
370
-1
100
AcDbCircle
10
62
20
-59
40
0.05
100
AcDbArc
50
180
51
360
0
LINE
5
1FE
100
AcDbEntity
8
0
6
ByLayer
62
256
370
-1
100
AcDbLine
10
17
20
-62.05
11
59
21
-62.05
0
LINE
5
1FF
100
AcDbEntity
8
0
6
ByLayer
62
256
370
-1
100
AcDbLine
10
17
20
-61.95
11
59
21
-61.95
0
ARC
5
200
100
AcDbEntity
8
0
6
ByLayer
62
256
370
-1
100
AcDbCircle
10
59
20
-62
40
0.05
100
AcDbArc
50
270
51
90
0
ARC
5
201
100
AcDbEntity
8
0
6
ByLayer
62
256
370
-1
100
AcDbCircle
10
17
20
-62
40
0.05
100
AcDbArc
50
90
51
270
0
ARC
5
202
100
AcDbEntity
8
0
6
ByLayer
62
256
370
-1
100
AcDbCircle
10
17
20
-58
40
4
100
AcDbArc
50
180
51
270
0
ARC
5
203
100
AcDbEntity
8
0
6
ByLayer
62
256
370
-1
100
AcDbCircle
10
59
20
-59
40
3
100
AcDbArc
50
270
51
0
0
ARC
5
204
100
AcDbEntity
8
0
6
ByLayer
62
256
370
-1
100
AcDbCircle
10
59
20
-16
40
3
100
AcDbArc
50
0
51
90
0
ARC
5
205
100
AcDbEntity
8
0
6
ByLayer
62
256
370
-1
100
AcDbCircle
10
16
20
-16
40
3
100
AcDbArc
50
90
51
180
0
ENDBLK
5
AB
330
A9
100
AcDbEntity
8
0
100
AcDbBlockEnd
0
ENDSEC
0
SECTION
2
ENTITIES
0
ARC
5
206
100
AcDbEntity
8
0
6
ByLayer
62
256
370
-1
100
AcDbCircle
10
-70
20
0
40
0
100
AcDbArc
50
0
51
0
0
ARC
5
207
100
AcDbEntity
8
0
6
ByLayer
62
256
370
-1
100
AcDbCircle
10
-46
20
3
40
3
100
AcDbArc
50
180
51
270
0
CIRCLE
5
208
100
AcDbEntity
8
0
6
ByLayer
62
256
370
-1
100
AcDbCircle
10
-45
20
4
40
1.5
0
ARC
5
209
100
AcDbEntity
8
0
6
ByLayer
62
256
370
-1
100
AcDbCircle
10
-3
20
3
40
3
100
AcDbArc
50
270
51
0
0
CIRCLE
5
20A
100
AcDbEntity
8
0
6
ByLayer
62
256
370
-1
100
AcDbCircle
10
-4
20
4
40
1.5
0
LINE
5
20B
100
AcDbEntity
8
0
6
ByLayer
62
256
370
-1
100
AcDbLine
10
-3
20
0
11
-46
21
0
0
ARC
5
20C
100
AcDbEntity
8
0
6
ByLayer
62
256
370
-1
100
AcDbCircle
10
-46
20
46
40
3
100
AcDbArc
50
90
51
180
0
CIRCLE
5
20D
100
AcDbEntity
8
0
6
ByLayer
62
256
370
-1
100
AcDbCircle
10
-44
20
46
40
1.5
0
ARC
5
20E
100
AcDbEntity
8
0
6
ByLayer
62
256
370
-1
100
AcDbCircle
10
-3
20
46
40
3
100
AcDbArc
50
0
51
90
0
CIRCLE
5
20F
100
AcDbEntity
8
0
6
ByLayer
62
256
370
-1
100
AcDbCircle
10
-5
20
46
40
1.5
0
LINE
5
210
100
AcDbEntity
8
0
6
ByLayer
62
256
370
-1
100
AcDbLine
10
-46
20
49
11
-3
21
49
0
LINE
5
211
100
AcDbEntity
8
0
6
ByLayer
62
256
370
-1
100
AcDbLine
10
-49
20
46
11
-49
21
3
0
LINE
5
212
100
AcDbEntity
8
0
6
ByLayer
62
256
370
-1
100
AcDbLine
10
0
20
3
11
0
21
46
0
ARC
5
213
100
AcDbEntity
8
0
6
ByLayer
62
256
370
-1
100
AcDbCircle
10
-36.5
20
15
40
1
100
AcDbArc
50
180
51
270
0
ARC
5
214
100
AcDbEntity
8
0
6
ByLayer
62
256
370
-1
100
AcDbCircle
10
-12.5
20
15
40
1
100
AcDbArc
50
270
51
0
0
ARC
5
215
100
AcDbEntity
8
0
6
ByLayer
62
256
370
-1
100
AcDbCircle
10
-12.5
20
28
40
1
100
AcDbArc
50
0
51
90
0
ARC
5
216
100
AcDbEntity
8
0
6
ByLayer
62
256
370
-1
100
AcDbCircle
10
-36.5
20
28
40
1
100
AcDbArc
50
90
51
180
0
LINE
5
217
100
AcDbEntity
8
0
6
ByLayer
62
256
370
-1
100
AcDbLine
10
-36.5
20
14
11
-12.5
21
14
0
LINE
5
218
100
AcDbEntity
8
0
6
ByLayer
62
256
370
-1
100
AcDbLine
10
-37.5
20
15
11
-37.5
21
28
0
LINE
5
219
100
AcDbEntity
8
0
6
ByLayer
62
256
370
-1
100
AcDbLine
10
-36.5
20
29
11
-12.5
21
29
0
LINE
5
21A
100
AcDbEntity
8
0
6
ByLayer
62
256
370
-1
100
AcDbLine
10
-11.5
20
28
11
-11.5
21
15
0
ARC
5
21B
100
AcDbEntity
8
0
6
ByLayer
62
256
370
-1
100
AcDbCircle
10
24
20
3
40
3
100
AcDbArc
50
180
51
270
0
CIRCLE
5
21C
100
AcDbEntity
8
0
6
ByLayer
62
256
370
-1
100
AcDbCircle
10
25
20
4
40
1.5
0
ARC
5
21D
100
AcDbEntity
8
0
6
ByLayer
62
256
370
-1
100
AcDbCircle
10
67
20
3
40
3
100
AcDbArc
50
270
51
0
0
CIRCLE
5
21E
100
AcDbEntity
8
0
6
ByLayer
62
256
370
-1
100
AcDbCircle
10
66
20
4
40
1.5
0
LINE
5
21F
100
AcDbEntity
8
0
6
ByLayer
62
256
370
-1
100
AcDbLine
10
67
20
0
11
24
21
0
0
ARC
5
220
100
AcDbEntity
8
0
6
ByLayer
62
256
370
-1
100
AcDbCircle
10
24
20
46
40
3
100
AcDbArc
50
90
51
180
0
CIRCLE
5
221
100
AcDbEntity
8
0
6
ByLayer
62
256
370
-1
100
AcDbCircle
10
26
20
46
40
1.5
0
ARC
5
222
100
AcDbEntity
8
0
6
ByLayer
62
256
370
-1
100
AcDbCircle
10
67
20
46
40
3
100
AcDbArc
50
0
51
90
0
CIRCLE
5
223
100
AcDbEntity
8
0
6
ByLayer
62
256
370
-1
100
AcDbCircle
10
65
20
46
40
1.5
0
LINE
5
224
100
AcDbEntity
8
0
6
ByLayer
62
256
370
-1
100
AcDbLine
10
24
20
49
11
67
21
49
0
LINE
5
225
100
AcDbEntity
8
0
6
ByLayer
62
256
370
-1
100
AcDbLine
10
21
20
46
11
21
21
3
0
LINE
5
226
100
AcDbEntity
8
0
6
ByLayer
62
256
370
-1
100
AcDbLine
10
70
20
3
11
70
21
46
0
DIMENSION
5
227
100
AcDbEntity
8
0
6
ByLayer
62
256
370
-1
100
AcDbDimension
2
*D1
10
65
20
70
30
0
11
45.5
21
71.875
31
0
70
33
71
5
3
Standard
53
0
210
0
220
0
230
1
100
AcDbAlignedDimension
13
26
23
46
33
0
14
65
24
46
34
0
0
DIMENSION
5
228
100
AcDbEntity
8
0
6
ByLayer
62
256
370
-1
100
AcDbDimension
2
*D2
10
70
20
80
30
0
11
45.5
21
81.875
31
0
70
33
71
5
3
Standard
53
0
210
0
220
0
230
1
100
AcDbAlignedDimension
13
21
23
46
33
0
14
70
24
46
34
0
0
DIMENSION
5
229
100
AcDbEntity
8
0
6
ByLayer
62
256
370
-1
100
AcDbDimension
2
*D3
10
21
20
60
30
0
11
22.5
21
61.875
31
0
70
33
71
5
3
Standard
53
0
210
0
220
0
230
1
100
AcDbAlignedDimension
13
24
23
49
33
0
14
21
24
49
34
0
0
DIMENSION
5
22A
100
AcDbEntity
8
0
6
ByLayer
62
256
370
-1
100
AcDbDimension
2
*D4
10
110
20
-1.05319624727e-14
30
0
11
108.125
21
24.5
31
0
70
33
71
5
3
Standard
53
0
210
0
220
0
230
1
100
AcDbAlignedDimension
13
67
23
49
33
0
14
67
24
0
34
0
0
DIMENSION
5
22B
100
AcDbEntity
8
0
6
ByLayer
62
256
370
-1
100
AcDbDimension
2
*D5
10
80
20
49
30
0
11
78.125
21
47.5
31
0
70
33
71
5
3
Standard
53
0
210
0
220
0
230
1
100
AcDbAlignedDimension
13
65
23
46
33
0
14
65
24
49
34
0
0
DIMENSION
5
22C
100
AcDbEntity
8
0
6
ByLayer
62
256
370
-1
100
AcDbDimension
2
*D6
10
70
20
60
30
0
11
67.5
21
61.875
31
0
70
33
71
5
3
Standard
53
0
210
0
220
0
230
1
100
AcDbAlignedDimension
13
65
23
46
33
0
14
70
24
46
34
0
0
DIMENSION
5
22D
100
AcDbEntity
8
0
6
ByLayer
62
256
370
-1
100
AcDbDimension
2
*D7
10
80
20
-3.42901103761e-15
30
0
11
78.125
21
2
31
0
70
33
71
5
3
Standard
53
0
210
0
220
0
230
1
100
AcDbAlignedDimension
13
66
23
4
33
0
14
66
24
0
34
0
0
DIMENSION
5
22E
100
AcDbEntity
8
0
6
ByLayer
62
256
370
-1
100
AcDbDimension
2
*D8
10
100
20
46
30
0
11
98.125
21
25
31
0
70
33
71
5
3
Standard
53
0
210
0
220
0
230
1
100
AcDbAlignedDimension
13
66
23
4
33
0
14
66
24
46
34
0
0
DIMENSION
5
22F
100
AcDbEntity
8
0
6
ByLayer
62
256
370
-1
100
AcDbDimension
2
*D9
10
66
20
-20
30
0
11
45.5
21
-18.125
31
0
70
33
71
5
3
Standard
53
0
210
0
220
0
230
1
100
AcDbAlignedDimension
13
25
23
4
33
0
14
66
24
4
34
0
0
DIMENSION
5
230
100
AcDbEntity
8
0
6
ByLayer
62
256
370
-1
100
AcDbDimension
2
*D10
10
67.0606601718
20
5.06066017178
30
0
11
64.6741747853
21
5.32582521472
31
0
70
35
71
5
3
Standard
53
0
210
0
220
0
230
1
100
AcDbDiametricDimension
15
64.9393398282
25
2.93933982822
35
0
40
0
0
DIMENSION
5
231
100
AcDbEntity
8
0
6
ByLayer
62
256
370
-1
100
AcDbDimension
2
*D11
10
-49
20
80
30
0
11
-24.5
21
81.875
31
0
70
33
71
5
3
Standard
53
0
210
0
220
0
230
1
100
AcDbAlignedDimension
13
0
23
20
33
0
14
-49
24
20
34
0
0
DIMENSION
5
232
100
AcDbEntity
8
0
6
ByLayer
62
256
370
-1
100
AcDbDimension
2
*D12
10
-49
20
70
30
0
11
-30.25
21
71.875
31
0
70
33
71
5
3
Standard
53
0
210
0
220
0
230
1
100
AcDbAlignedDimension
13
-11.5
23
28
33
0
14
-49
24
28
34
0
0
DIMENSION
5
233
100
AcDbEntity
8
0
6
ByLayer
62
256
370
-1
100
AcDbDimension
2
*D13
10
-49
20
60
30
0
11
-43.25
21
61.875
31
0
70
33
71
5
3
Standard
53
0
210
0
220
0
230
1
100
AcDbAlignedDimension
13
-37.5
23
28
33
0
14
-49
24
28
34
0
0
DIMENSION
5
234
100
AcDbEntity
8
0
6
ByLayer
62
256
370
-1
100
AcDbDimension
2
*D14
10
-11.5
20
40
30
0
11
-24.5
21
41.875
31
0
70
33
71
5
3
Standard
53
0
210
0
220
0
230
1
100
AcDbAlignedDimension
13
-37.5
23
28
33
0
14
-11.5
24
28
34
0
0
DIMENSION
5
235
100
AcDbEntity
8
0
6
ByLayer
62
256
370
-1
100
AcDbDimension
2
*D15
10
-60
20
14
30
0
11
-61.875
21
21.5
31
0
70
33
71
5
3
Standard
53
0
210
0
220
0
230
1
100
AcDbAlignedDimension
13
-34
23
29
33
0
14
-34
24
14
34
0
0
DIMENSION
5
236
100
AcDbEntity
8
0
6
ByLayer
62
256
370
-1
100
AcDbDimension
2
*D16
10
-43
20
29
30
0
11
-44.875
21
28.5
31
0
70
33
71
5
3
Standard
53
0
210
0
220
0
230
1
100
AcDbAlignedDimension
13
-37.5
23
28
33
0
14
-37.5
24
29
34
0
0
DIMENSION
5
237
100
AcDbEntity
8
0
6
ByLayer
62
256
370
-1
100
AcDbDimension
2
*D17
10
-90
20
1.07768918325e-14
30
0
11
-91.875
21
24.5
31
0
70
33
71
5
3
Standard
53
0
210
0
220
0
230
1
100
AcDbAlignedDimension
13
-46
23
49
33
0
14
-46
24
0
34
0
0
DIMENSION
5
238
100
AcDbEntity
8
0
6
ByLayer
62
256
370
-1
100
AcDbDimension
2
*D18
10
-70
20
49
30
0
11
-71.875
21
39
31
0
70
33
71
5
3
Standard
53
0
210
0
220
0
230
1
100
AcDbAlignedDimension
13
-31
23
29
33
0
14
-31
24
49
34
0
0
ENDSEC
0
SECTION
2
OBJECTS
0
DICTIONARY
5
C
330
0
100
AcDbDictionary
281
1
3
ACAD_GROUP
350
D
0
DICTIONARY
5
D
330
C
100
AcDbDictionary
281
1
0
ENDSEC
0
EOF
